{"glyphs":{"0":{"ha":576,"x_min":33,"x_max":660,"o":"m 154 -9 l 154 -9 q 116 -6 134 -9 l 116 -6 q 33 112 33 5 l 33 112 q 111 344 33 217 l 111 344 q 249 500 159 424 l 249 500 q 423 614 335 574 l 423 614 q 419 622 419 618 l 419 622 q 435 632 419 629 q 476 633 451 635 l 476 633 q 553 643 505 643 l 553 643 q 628 615 628 643 l 628 615 q 608 609 626 601 l 608 609 q 547 620 575 621 l 547 620 q 604 585 578 610 l 604 585 q 660 450 660 532 l 660 450 q 615 292 660 375 l 615 292 q 498 145 572 210 l 498 145 q 154 -9 325 -9 z m 128 16 l 128 16 q 451 163 270 4 l 451 163 q 607 461 607 300 l 607 461 q 575 563 607 537 l 575 563 q 483 609 526 601 l 483 609 q 287 482 390 580 l 287 482 q 161 331 211 408 l 161 331 q 79 96 79 204 l 79 96 q 128 16 79 20 z"},"1":{"ha":349,"x_min":-1,"x_max":483,"o":"m 18 -22 l 18 -22 q 5 -16 10 -25 q -1 4 -1 -7 l -1 4 q 8 22 -1 19 l 8 22 q 51 39 25 30 q 109 59 76 48 l 109 59 q 213 249 150 135 q 360 516 275 363 l 360 516 q 220 450 305 482 l 220 450 q 205 460 205 444 l 205 460 q 214 473 205 469 l 214 473 q 403 593 282 499 l 403 593 l 409 603 q 454 622 419 622 l 454 622 q 483 607 483 622 l 483 607 q 480 599 483 604 l 480 599 l 158 67 q 301 79 226 79 l 301 79 q 312 68 312 79 l 312 68 q 297 54 312 54 l 297 54 q 154 30 231 54 l 154 30 q 105 12 139 25 q 18 -22 71 -1 z"},"2":{"ha":648,"x_min":0,"x_max":720,"o":"m 522 -49 l 522 -49 q 377 -20 461 -49 l 377 -20 l 238 30 q 163 44 191 44 l 163 44 q 115 24 144 35 q 45 -2 85 12 l 45 -2 q 24 -5 33 -5 l 24 -5 q 0 13 0 -5 l 0 13 q 26 55 0 35 l 26 55 q 74 75 50 71 l 74 75 q 119 80 94 79 q 171 79 143 81 l 171 79 q 477 277 405 220 l 477 277 q 579 372 545 330 l 579 372 q 636 492 626 428 l 636 492 q 638 501 637 497 q 638 509 638 505 l 638 509 q 570 563 638 563 l 570 563 q 405 518 504 563 l 405 518 q 261 429 315 477 l 261 429 q 252 425 257 425 l 252 425 q 242 437 242 425 l 242 437 q 248 449 242 445 l 248 449 q 426 557 317 508 l 426 557 q 628 610 546 610 l 628 610 q 720 539 720 610 l 720 539 q 720 529 720 534 q 718 517 719 523 l 718 517 q 627 367 706 447 l 627 367 q 570 315 605 345 q 488 247 535 285 l 488 247 q 197 67 383 165 l 197 67 q 353 25 241 63 l 353 25 q 528 -11 460 -11 l 528 -11 q 601 4 567 -11 l 601 4 q 645 57 645 22 l 645 57 q 584 119 645 97 l 584 119 q 576 127 576 122 l 576 127 q 593 135 576 140 l 593 135 q 676 55 676 111 l 676 55 q 620 -24 676 8 l 620 -24 q 522 -49 574 -49 z"},"3":{"ha":718,"x_min":32,"x_max":750,"o":"m 255 -10 l 255 -10 q 97 20 157 -10 l 97 20 q 32 110 32 52 l 32 110 q 51 176 32 141 l 51 176 q 150 253 76 221 l 150 253 q 259 279 213 279 l 259 279 q 271 271 271 279 l 271 271 q 257 261 271 261 l 257 261 q 175 231 225 261 l 175 231 q 109 161 119 196 l 109 161 q 106 144 107 152 q 104 127 104 135 l 104 127 q 223 19 104 40 l 223 19 q 464 55 339 -2 l 464 55 q 653 242 604 120 l 653 242 q 660 276 660 259 l 660 276 q 615 335 660 316 l 615 335 q 519 352 576 352 l 519 352 q 421 337 460 352 l 421 337 q 402 333 412 333 l 402 333 q 384 350 384 333 l 384 350 q 392 371 384 361 q 413 380 400 380 l 413 380 q 574 409 499 380 l 574 409 q 682 516 670 447 l 682 516 q 683 523 683 520 q 683 529 683 526 l 683 529 q 626 572 683 572 l 626 572 q 504 545 576 572 l 504 545 q 393 491 440 521 l 393 491 q 386 488 389 488 l 386 488 q 379 501 379 488 l 379 501 q 398 535 379 531 l 398 535 q 471 589 421 542 l 471 589 q 482 593 477 595 l 482 593 q 487 586 487 591 l 487 586 q 481 574 487 580 l 481 574 q 473 566 478 572 l 473 566 q 652 612 580 612 l 652 612 q 746 521 750 612 l 746 521 q 567 380 741 434 l 567 380 q 718 274 718 364 l 718 274 q 714 246 718 259 l 714 246 q 537 54 684 128 l 537 54 q 255 -10 408 -10 z"},"4":{"ha":568,"x_min":13,"x_max":684,"o":"m 339 -81 l 339 -81 q 330 -79 335 -81 q 323 -75 325 -78 l 323 -75 q 309 9 306 -37 q 325 101 311 55 q 354 186 339 147 l 354 186 q 286 203 317 197 q 228 208 254 208 l 228 208 q 41 158 162 208 l 41 158 q 21 165 29 154 q 13 189 13 175 l 13 189 q 35 222 13 215 l 35 222 q 59 229 45 226 q 91 236 72 232 l 91 236 q 191 299 138 262 q 297 375 244 336 q 396 443 350 414 l 396 443 q 547 545 490 502 q 622 615 603 588 l 622 615 l 624 618 l 633 632 q 650 639 638 639 l 650 639 q 684 620 684 639 l 684 620 q 682 616 684 618 l 682 616 l 506 363 q 469 305 489 337 q 431 245 448 273 q 406 204 414 217 l 406 204 q 524 180 477 180 l 524 180 q 575 197 552 180 l 575 197 q 604 255 604 221 l 604 255 q 601 276 604 266 l 601 276 q 609 291 598 291 l 609 291 q 623 281 618 291 l 623 281 q 642 220 642 247 l 642 220 q 520 152 642 152 l 520 152 q 390 176 468 152 l 390 176 q 362 106 376 148 q 343 21 347 64 q 353 -54 338 -22 l 353 -54 q 355 -63 355 -60 l 355 -63 q 339 -81 355 -81 z m 368 219 l 368 219 q 406 290 380 245 q 466 387 432 334 q 533 488 499 439 l 533 488 l 556 522 q 455 455 516 498 q 319 358 393 412 q 162 246 244 304 l 162 246 q 204 250 187 249 q 231 251 221 251 l 231 251 q 368 219 284 251 z"},"5":{"ha":662,"x_min":-33,"x_max":793,"o":"m 308 552 l 308 552 q 299 557 301 547 q 298 585 296 567 l 298 585 q 307 609 300 605 l 307 609 q 358 629 330 626 l 358 629 q 378 631 364 630 q 413 631 391 631 l 413 631 q 472 625 437 631 q 552 605 506 618 l 552 605 q 633 586 598 592 q 691 579 667 579 l 691 579 q 736 591 711 579 l 736 591 q 769 632 769 608 l 769 632 q 781 647 769 647 l 781 647 q 793 621 793 647 l 793 621 q 748 567 793 587 l 748 567 q 685 554 718 554 l 685 554 q 626 557 660 554 q 548 567 592 560 l 548 567 q 471 577 505 574 q 410 580 436 580 l 410 580 q 308 552 345 580 z m 154 -8 l 154 -8 q 20 16 72 -11 q -33 92 -33 43 l -33 92 q 32 205 -33 143 l 32 205 q 51 215 42 215 l 51 215 q 58 208 58 215 l 58 208 q 48 190 58 200 l 48 190 q 12 120 12 156 l 12 120 q 58 50 12 78 l 58 50 q 166 22 104 22 l 166 22 q 407 107 285 22 l 407 107 q 557 307 534 195 l 557 307 q 559 317 558 312 q 559 327 559 322 l 559 327 q 497 403 559 377 l 497 403 q 398 418 451 420 l 398 418 q 278 389 332 415 l 278 389 l 173 338 q 167 337 171 337 l 167 337 q 158 349 158 337 l 158 349 q 171 370 158 364 l 171 370 l 289 519 q 334 530 298 530 l 334 530 q 354 524 354 530 l 354 524 q 352 520 354 522 l 352 520 l 236 394 q 419 445 364 445 l 419 445 q 633 339 633 445 l 633 339 q 627 303 633 323 l 627 303 q 442 83 586 174 l 442 83 q 154 -8 306 -2 z"},"6":{"ha":612,"x_min":47,"x_max":745,"o":"m 213 -19 l 213 -19 q 86 17 128 -19 l 86 17 q 50 109 47 50 l 50 109 q 133 292 55 194 l 133 292 q 341 463 215 395 l 341 463 q 594 580 496 547 l 594 580 q 585 583 591 581 q 576 584 579 584 l 576 584 q 572 591 571 587 l 572 591 q 584 599 574 595 q 599 601 593 602 l 599 601 l 683 606 q 728 597 711 608 q 745 571 745 585 l 745 571 q 734 559 745 561 l 734 559 q 371 427 580 529 l 371 427 q 189 292 275 381 l 189 292 q 85 98 85 186 l 85 98 q 210 7 85 7 l 210 7 q 386 39 279 7 l 386 39 q 480 90 435 54 l 480 90 q 535 177 535 133 l 535 177 q 489 212 535 212 l 489 212 q 344 170 418 212 l 344 170 q 246 48 259 121 l 246 48 q 229 29 243 29 l 229 29 q 220 46 217 29 l 220 46 q 328 196 237 138 l 328 196 q 494 247 408 246 l 494 247 q 594 179 594 248 l 594 179 q 532 76 594 126 l 532 76 q 421 19 483 39 l 421 19 q 213 -19 296 -19 z"},"7":{"ha":494,"x_min":105,"x_max":705,"o":"m 139 -15 l 139 -15 q 123 -3 125 -15 q 121 20 121 8 l 121 20 q 254 275 121 126 l 254 275 q 578 578 391 430 l 578 578 q 444 595 496 589 q 367 600 391 600 l 367 600 q 237 582 281 600 l 237 582 q 158 491 180 557 l 158 491 q 131 471 150 471 l 131 471 q 113 479 120 471 q 109 499 105 487 l 109 499 l 110 505 q 112 511 112 511 l 112 511 l 130 547 q 140 583 142 572 l 140 583 q 143 606 139 593 l 143 606 q 150 612 146 613 l 150 612 q 158 581 158 606 l 158 581 q 346 644 229 644 l 346 644 q 476 625 397 644 l 476 625 q 557 608 524 614 q 605 599 589 601 l 605 599 l 656 637 q 685 624 667 645 l 685 624 q 693 596 705 604 l 693 596 q 473 426 574 510 q 288 259 371 342 l 288 259 q 199 145 239 210 l 199 145 q 149 14 149 65 l 149 14 q 150 6 149 10 q 151 -3 150 1 l 151 -3 q 139 -15 153 -15 z"},"8":{"ha":608,"x_min":1,"x_max":719,"o":"m 126 -18 l 126 -18 q 22 15 51 -18 l 22 15 q 1 72 1 39 l 1 72 q 62 197 1 132 l 62 197 q 331 401 176 321 l 331 401 q 269 474 269 439 l 269 474 q 273 494 269 485 l 273 494 q 373 594 295 554 l 373 594 q 520 630 444 630 l 520 630 q 609 610 574 630 l 609 610 q 636 568 636 594 l 636 568 q 618 521 636 547 l 618 521 l 702 548 q 715 546 710 550 q 718 533 719 541 l 718 533 q 689 510 715 516 l 689 510 q 562 473 628 497 q 423 415 496 449 l 423 415 q 515 370 483 390 l 515 370 q 588 264 588 324 l 588 264 q 506 130 588 200 l 506 130 q 321 23 434 70 l 321 23 q 126 -18 219 -18 z m 394 428 l 394 428 q 472 463 424 442 q 585 510 520 484 l 585 510 q 594 528 589 517 q 604 552 598 538 l 604 552 q 587 586 611 577 l 587 586 q 507 600 548 600 l 507 600 q 381 566 436 600 l 381 566 q 333 489 327 533 l 333 489 q 394 428 337 454 z m 137 1 l 137 1 q 292 38 202 1 l 292 38 q 531 238 531 136 l 531 238 q 445 342 531 298 l 445 342 l 359 386 q 177 251 271 336 l 177 251 q 57 55 47 131 l 57 55 q 137 1 65 1 z"},"9":{"ha":440,"x_min":74,"x_max":621,"o":"m 161 -152 l 161 -152 q 120 -98 121 -147 l 120 -98 q 229 184 116 9 l 229 184 q 333 326 276 257 q 454 458 389 394 l 454 458 q 134 313 245 313 l 134 313 q 75 364 74 313 l 75 364 q 182 514 78 448 l 182 514 q 400 601 268 568 l 400 601 q 597 626 514 629 l 597 626 q 603 617 605 626 l 603 617 q 593 595 602 608 q 576 583 584 582 l 576 583 q 282 526 434 594 l 282 526 q 121 373 126 457 l 121 373 q 166 341 120 335 l 166 341 q 252 370 200 345 q 373 438 303 394 l 373 438 q 472 505 425 471 q 561 573 518 539 l 561 573 q 579 577 565 577 l 579 577 q 621 556 621 577 l 621 556 q 612 541 621 549 l 612 541 q 569 504 596 528 q 502 444 541 479 l 502 444 q 162 -102 153 122 l 162 -102 q 177 -135 164 -130 l 177 -135 q 182 -148 192 -141 l 182 -148 q 161 -152 176 -154 z"}," ":{"ha":198,"x_min":0,"x_max":0,"o":""},"A":{"ha":1020,"x_min":-1,"x_max":1138,"o":"m 153 -116 l 153 -116 q -1 42 -1 -103 l -1 42 q 53 224 -1 128 l 53 224 q 134 337 85 282 q 240 437 182 392 q 358 507 297 481 q 474 533 418 533 l 474 533 q 573 460 573 533 l 573 460 q 543 351 573 411 l 543 351 q 482 275 513 291 l 482 275 q 475 274 479 274 l 475 274 q 472 276 472 274 l 472 276 l 505 330 q 539 428 539 386 l 539 428 q 523 485 539 458 q 466 512 507 512 l 466 512 q 364 484 416 512 q 262 410 311 456 q 173 309 213 364 q 109 199 133 253 l 109 199 q 58 13 58 84 l 58 13 q 167 -94 58 -94 l 167 -94 q 449 40 271 -94 l 449 40 q 555 127 490 71 q 706 263 619 183 l 706 263 q 676 261 694 262 q 634 255 658 259 l 634 255 q 615 252 624 253 q 598 250 606 250 l 598 250 q 581 260 578 252 l 581 260 q 619 297 585 297 l 619 297 q 678 291 650 293 q 730 289 705 289 l 730 289 q 834 390 769 325 q 987 548 898 454 l 987 548 q 1127 669 1102 669 l 1127 669 q 1138 649 1138 669 l 1138 649 q 1136 629 1138 641 q 1130 601 1134 617 l 1130 601 q 1109 555 1120 563 l 1109 555 q 1058 499 1078 533 q 1016 422 1037 464 l 1016 422 q 978 346 995 379 q 946 286 960 312 l 946 286 l 1043 288 q 1079 283 1079 288 l 1079 283 q 1077 280 1079 282 l 1077 280 q 933 260 1060 269 l 933 260 q 840 12 840 79 l 840 12 q 869 -34 840 -34 l 869 -34 q 897 -20 880 -34 l 897 -20 q 917 -7 913 -7 l 917 -7 q 918 -6 917 -5 q 917 -7 919 -7 l 917 -7 q 888 -39 912 -25 q 836 -54 863 -54 l 836 -54 q 803 -38 811 -54 q 795 6 795 -22 l 795 6 q 872 263 795 107 l 872 263 l 752 260 q 483 30 618 129 l 483 30 q 153 -116 268 -126 z m 770 290 l 881 289 q 929 373 893 312 q 1026 530 965 433 l 1026 530 l 770 290 z"},"B":{"ha":819,"x_min":18,"x_max":894,"o":"m 424 -47 l 424 -47 q 209 61 266 -47 l 209 61 q 62 -25 106 -25 l 62 -25 q 30 -5 41 -25 q 18 40 18 15 l 18 40 q 64 180 18 100 l 64 180 q 108 244 84 215 q 162 273 132 273 l 162 273 q 206 225 191 273 l 206 225 l 236 129 q 272 171 252 146 q 315 228 291 195 l 315 228 l 404 348 q 619 581 568 561 l 619 581 q 655 588 637 588 l 655 588 q 688 580 675 588 q 700 560 700 571 l 700 560 q 671 539 700 542 l 671 539 q 554 438 641 522 l 554 438 q 490 374 514 399 q 456 335 465 348 l 456 335 q 249 95 344 179 l 249 95 q 432 -26 310 -26 l 432 -26 q 526 -6 478 -26 q 614 45 573 13 q 679 117 654 77 q 704 195 704 156 l 704 195 q 675 269 704 236 q 604 316 646 302 l 604 316 q 589 318 604 316 q 543 324 574 320 l 543 324 q 496 343 496 330 l 496 343 q 508 359 496 352 q 531 366 519 366 l 531 366 q 552 362 540 366 q 574 355 564 358 q 583 351 583 351 l 583 351 q 601 350 591 350 q 621 349 611 349 l 621 349 q 741 370 687 349 l 741 370 q 817 428 793 391 q 841 514 841 465 l 841 514 q 810 593 841 564 q 727 635 778 622 q 615 647 675 647 l 615 647 q 393 613 498 647 q 210 500 287 579 l 210 500 q 151 398 151 439 l 151 398 q 166 349 151 369 l 166 349 q 175 339 170 344 q 187 329 180 334 l 187 329 q 181 326 192 326 l 181 326 q 119 409 119 340 l 119 409 q 189 539 119 478 l 189 539 q 313 615 243 586 q 460 657 382 644 q 613 670 537 670 l 613 670 q 717 662 667 670 q 807 636 767 654 q 871 587 847 617 q 894 513 894 557 l 894 513 q 861 414 894 451 q 772 357 828 377 l 772 357 q 630 333 706 334 l 630 333 q 704 311 672 331 q 753 259 735 291 q 770 189 770 227 l 770 189 q 740 95 770 138 q 658 20 709 51 q 546 -29 607 -12 q 424 -47 485 -47 z m 75 -2 l 75 -2 q 198 89 107 -2 l 198 89 l 195 93 q 131 226 155 226 l 131 226 q 126 224 130 226 l 126 224 q 52 52 52 117 l 52 52 q 58 18 52 38 q 75 -2 63 -2 z"},"C":{"ha":726,"x_min":31,"x_max":797,"o":"m 263 -65 l 263 -65 q 92 -6 152 -65 q 31 147 31 53 l 31 147 q 74 315 31 233 q 181 466 116 397 l 181 466 q 303 563 234 522 q 447 627 371 604 q 594 650 522 650 l 594 650 q 697 635 651 650 q 770 586 743 619 q 797 500 797 553 l 797 500 q 775 413 797 453 q 715 342 752 372 q 632 295 677 312 q 541 278 587 278 l 541 278 q 440 306 481 278 q 399 375 399 333 l 399 375 q 468 481 399 429 l 468 481 q 487 490 480 490 l 487 490 q 492 486 492 490 l 492 486 q 476 470 492 476 l 476 470 q 420 379 420 425 l 420 379 q 450 324 420 346 q 525 301 480 301 l 525 301 q 606 318 565 301 q 680 364 646 335 q 735 430 714 393 q 755 506 755 466 l 755 506 q 711 601 755 571 q 599 631 667 631 l 599 631 q 447 602 522 631 q 305 522 371 573 q 187 405 239 471 l 187 405 q 83 159 83 274 l 83 159 q 111 56 83 98 q 189 -9 139 13 q 302 -31 238 -31 l 302 -31 q 486 11 397 -31 q 638 122 575 52 l 638 122 q 663 140 655 140 l 663 140 q 669 131 669 140 l 669 131 q 658 108 669 119 l 658 108 q 577 41 624 72 q 477 -14 530 10 q 368 -51 423 -38 q 263 -65 313 -65 z"},"D":{"ha":921,"x_min":15,"x_max":926,"o":"m 427 -58 l 427 -58 q 187 25 260 -66 l 187 25 q 58 -43 99 -43 l 58 -43 q 26 -21 36 -43 q 15 25 15 0 l 15 25 q 52 163 15 73 l 52 163 q 133 265 96 265 l 133 265 q 162 205 152 265 l 162 205 q 193 81 179 115 l 193 81 q 276 176 226 116 q 390 321 325 236 l 390 321 q 605 554 552 534 l 605 554 q 641 561 623 561 l 641 561 q 674 553 661 561 q 686 533 686 544 l 686 533 q 657 513 686 516 l 657 513 q 606 475 636 502 q 542 414 575 448 q 479 346 508 379 q 432 288 450 312 l 432 288 q 218 50 325 139 l 218 50 l 212 45 q 289 -20 244 -2 q 389 -38 334 -38 l 389 -38 q 563 -10 480 -38 q 712 72 645 17 q 821 205 778 126 l 821 205 q 868 369 868 291 l 868 369 q 845 470 868 422 q 784 551 822 517 q 698 595 745 585 l 698 595 q 583 607 643 607 l 583 607 q 299 536 429 607 l 299 536 q 162 368 162 461 l 162 368 q 177 325 162 343 l 177 325 q 194 309 189 311 l 194 309 l 188 309 q 140 337 160 314 q 120 388 120 360 l 120 388 q 153 484 120 440 q 247 563 185 527 l 247 563 q 540 634 371 634 l 540 634 q 616 630 578 634 q 691 618 654 626 l 691 618 q 809 565 756 604 q 894 470 862 526 q 926 349 926 414 l 926 349 q 882 194 926 274 l 882 194 q 769 59 838 113 q 612 -24 699 4 q 427 -58 525 -53 z m 63 -25 l 63 -25 q 167 54 106 -6 l 167 54 q 129 135 138 102 l 129 135 q 120 202 123 157 l 120 202 q 51 29 51 103 l 51 29 q 63 -25 51 -2 z"},"E":{"ha":691,"x_min":3,"x_max":776,"o":"m 256 -80 l 256 -80 q 132 -63 189 -80 q 39 -11 74 -46 q 3 77 3 24 l 3 77 q 29 159 3 118 l 29 159 q 343 376 121 305 l 343 376 q 310 462 310 414 l 310 462 q 331 529 310 501 l 331 529 q 455 622 372 585 l 455 622 q 551 653 502 642 q 649 664 599 664 l 649 664 q 744 644 711 664 q 776 588 776 624 l 776 588 q 763 543 776 563 q 729 510 749 522 q 688 497 709 497 l 688 497 q 657 512 657 497 l 657 512 q 670 521 657 521 l 670 521 q 681 520 674 521 q 690 518 687 518 l 690 518 q 727 540 711 518 q 743 584 743 562 l 743 584 q 713 630 743 616 q 644 644 682 644 l 644 644 q 458 583 549 644 l 458 583 q 362 441 362 520 l 362 441 q 382 387 362 412 l 382 387 q 448 403 417 398 q 506 407 478 407 l 506 407 q 602 370 602 407 l 602 370 q 588 341 602 353 q 553 322 574 328 q 509 315 531 315 l 509 315 q 458 321 486 315 q 404 337 430 327 q 360 360 378 347 l 360 360 q 194 277 266 333 q 86 150 121 220 l 86 150 q 67 76 67 112 l 67 76 q 92 4 67 32 q 159 -37 117 -24 q 250 -50 200 -50 l 250 -50 q 415 -23 333 -50 q 555 55 497 3 l 555 55 q 634 202 634 125 l 634 202 q 575 263 634 263 l 575 263 q 506 248 544 263 q 435 206 468 232 q 379 149 401 180 q 357 86 357 118 l 357 86 q 385 47 357 54 l 385 47 q 395 37 395 43 l 395 37 q 380 29 395 29 l 380 29 q 327 88 327 29 l 327 88 q 350 162 327 127 q 410 224 373 197 q 489 267 446 251 q 572 282 532 282 l 572 282 q 645 262 619 282 q 671 195 671 241 l 671 195 q 568 20 671 102 l 568 20 q 424 -56 503 -33 q 256 -80 345 -80 z m 500 337 l 500 337 q 554 368 554 337 l 554 368 q 500 382 554 382 l 500 382 q 451 379 476 382 q 399 371 425 376 l 399 371 q 500 337 442 337 z"},"F":{"ha":632,"x_min":-12,"x_max":728,"o":"m 254 -89 l 254 -89 q 235 -78 235 -89 l 235 -78 q 306 45 235 -56 l 306 45 q 375 136 338 89 q 451 230 411 182 l 451 230 q 386 220 414 223 q 341 217 358 217 l 341 217 q 337 222 337 218 l 337 222 q 349 239 337 229 q 369 249 361 249 l 369 249 q 384 249 371 249 q 418 250 396 249 l 418 250 l 469 250 q 522 323 484 270 q 620 462 559 376 l 620 462 q 668 576 668 531 l 668 576 q 564 646 668 646 l 564 646 q 431 623 501 646 q 293 562 360 600 q 172 478 225 523 l 172 478 q 69 361 107 423 q 31 249 31 298 l 31 249 q 142 171 31 164 l 142 171 q 261 244 203 176 l 261 244 q 311 358 317 311 l 311 358 q 337 327 337 353 l 337 327 q 283 228 337 284 l 283 228 q 201 169 246 191 q 105 147 155 147 l 105 147 q 19 177 49 147 q -12 255 -12 206 l -12 255 q 132 493 -12 373 l 132 493 q 268 584 195 545 q 418 644 341 622 q 569 665 495 665 l 569 665 q 685 641 642 665 q 728 569 728 616 l 728 569 q 689 470 728 526 l 689 470 q 636 395 676 450 q 528 251 596 340 l 528 251 l 586 249 q 622 248 609 248 q 637 248 635 247 l 637 248 l 643 248 q 661 241 661 248 l 661 241 q 622 227 661 227 l 622 227 q 612 227 621 227 q 585 228 602 227 l 585 228 q 558 229 570 229 q 537 229 546 229 l 537 229 q 506 224 511 227 l 506 224 q 458 161 484 196 q 401 84 431 126 l 401 84 q 322 -44 322 -25 l 322 -44 q 330 -46 322 -50 q 340 -40 337 -42 l 340 -40 q 351 -43 351 -40 l 351 -43 q 329 -58 351 -48 l 329 -58 l 301 -73 q 254 -89 282 -89 z"},"G":{"ha":828,"x_min":-15,"x_max":948,"o":"m 509 -154 l 509 -154 q 501 -141 501 -154 l 501 -141 q 516 -89 501 -123 q 557 -6 530 -56 l 557 -6 l 627 125 q 469 26 563 70 l 469 26 q 342 -21 409 -3 q 213 -39 275 -39 l 213 -39 q 45 11 105 -39 q -15 143 -15 61 l -15 143 q 170 454 -15 296 l 170 454 q 272 526 215 492 q 392 586 329 560 q 518 626 455 611 q 637 640 581 640 l 637 640 q 726 627 684 640 q 794 590 767 614 q 820 529 820 565 l 820 529 q 800 470 820 499 q 749 418 780 441 q 681 381 717 395 q 610 367 644 367 l 610 367 q 517 465 519 367 l 517 465 q 534 515 515 515 l 534 515 q 547 472 551 515 l 547 472 q 616 390 537 390 l 616 390 q 674 400 643 390 q 732 428 705 410 q 775 468 758 446 q 792 514 792 490 l 792 514 q 771 563 792 544 q 716 590 749 581 q 644 599 682 599 l 644 599 q 481 574 563 599 q 323 503 399 548 q 185 397 247 457 l 185 397 q 42 140 42 257 l 42 140 q 95 29 42 70 q 232 -13 147 -13 l 232 -13 q 371 13 300 -13 q 506 76 442 39 l 506 76 q 701 231 636 149 l 701 231 l 730 274 q 680 271 717 274 q 578 263 642 268 l 578 263 q 473 254 511 258 q 424 247 434 249 l 424 247 q 400 244 412 244 l 400 244 q 367 260 367 244 l 367 260 q 455 304 367 285 l 455 304 q 551 315 486 311 q 715 318 616 318 l 715 318 q 939 304 881 318 l 939 304 q 948 299 948 303 l 948 299 q 879 283 948 289 l 879 283 l 830 279 q 791 276 802 276 l 791 276 q 527 -138 689 143 l 527 -138 q 509 -154 518 -154 z"},"H":{"ha":951,"x_min":19,"x_max":1263,"o":"m 756 -66 l 756 -66 q 713 -44 728 -66 q 698 8 698 -22 l 698 8 q 751 166 698 66 l 751 166 q 677 163 714 163 l 677 163 q 575 166 650 163 l 575 166 l 447 170 q 333 -34 377 58 l 333 -34 q 298 -61 320 -61 l 298 -61 q 283 -47 283 -61 l 283 -47 q 289 -25 283 -37 l 289 -25 q 334 61 306 12 q 398 171 361 110 l 398 171 q 289 164 316 171 l 289 164 q 222 119 244 153 l 222 119 q 209 107 214 108 l 209 107 q 203 112 203 106 l 203 112 q 207 121 203 117 l 207 121 q 284 192 245 172 l 284 192 q 423 210 324 213 l 423 210 q 594 486 485 303 l 594 486 q 635 611 635 563 l 635 611 q 530 689 635 689 l 530 689 q 292 622 402 689 l 292 622 q 183 532 234 586 q 101 416 132 477 q 70 295 70 354 l 70 295 q 157 202 70 202 l 157 202 q 226 221 196 202 q 279 268 256 239 l 279 268 q 324 379 324 324 l 324 379 q 308 430 324 410 l 308 430 q 306 435 306 432 l 306 435 q 314 442 306 442 l 314 442 q 320 439 319 442 l 320 439 q 340 377 340 413 l 340 377 q 290 252 340 316 l 290 252 q 227 197 259 214 q 152 179 194 179 l 152 179 q 54 219 89 179 q 19 320 19 258 l 19 320 q 70 479 19 404 q 197 608 120 554 l 197 608 q 536 710 349 715 l 536 710 q 611 696 576 709 q 668 657 646 682 q 689 593 689 631 l 689 593 q 681 543 689 570 q 652 486 672 516 l 652 486 l 471 208 q 523 205 491 207 q 599 197 555 202 l 599 197 q 661 192 636 193 q 699 190 686 190 l 699 190 q 739 190 722 190 q 765 191 755 190 l 765 191 l 803 254 q 908 412 853 337 q 1021 552 962 486 l 1021 552 q 1250 734 1155 700 l 1250 734 q 1257 735 1253 735 l 1257 735 q 1263 727 1263 735 l 1263 727 q 1260 722 1263 724 l 1260 722 q 1185 663 1229 705 q 1081 552 1140 620 l 1081 552 q 966 408 1019 480 q 870 263 913 336 l 870 263 l 831 197 q 897 220 877 203 l 897 220 q 904 217 901 223 l 904 217 q 903 207 907 210 l 903 207 q 818 174 873 184 l 818 174 q 748 -9 748 44 l 748 -9 q 777 -43 748 -43 l 777 -43 q 824 -29 797 -43 q 866 1 850 -16 l 866 1 q 869 3 868 3 l 869 3 q 872 -3 872 3 l 872 -3 q 867 -14 871 -10 l 867 -14 q 835 -38 855 -26 q 794 -58 815 -50 q 756 -66 772 -66 z"},"I":{"ha":576,"x_min":21,"x_max":876,"o":"m 177 -69 l 177 -69 q 21 115 21 -69 l 21 115 q 102 360 21 267 l 102 360 q 258 440 170 440 l 258 440 q 336 414 307 440 q 364 339 364 388 l 364 339 q 304 181 364 261 l 304 181 q 178 98 242 98 l 178 98 q 124 120 141 98 q 106 173 106 142 l 106 173 q 114 217 106 193 l 114 217 q 137 246 125 246 l 137 246 q 146 237 146 246 l 146 237 q 137 211 146 232 l 137 211 q 130 180 130 196 l 130 180 q 144 147 130 159 q 179 134 157 134 l 179 134 q 290 209 238 134 l 290 209 q 339 348 339 279 l 339 348 q 322 404 339 384 q 274 423 304 423 l 274 423 q 132 325 203 423 l 132 325 q 63 94 59 220 l 63 94 q 94 -1 65 38 q 170 -40 122 -40 l 170 -40 q 515 319 305 -40 l 515 319 q 405 449 405 352 l 405 449 q 440 567 405 514 q 536 655 475 619 l 536 655 q 698 703 619 703 l 698 703 q 782 693 741 703 q 849 660 822 682 q 876 601 876 637 l 876 601 q 871 578 876 589 q 859 567 865 567 l 859 567 q 850 574 860 567 q 828 580 840 580 l 828 580 q 595 327 743 580 l 595 327 q 603 326 599 326 q 611 326 607 326 l 611 326 q 660 335 636 326 q 699 360 683 344 q 714 396 714 376 l 714 396 q 711 413 714 404 q 707 423 707 421 l 707 423 q 715 431 707 431 l 715 431 q 723 428 719 431 l 723 428 q 746 386 746 411 l 746 386 q 727 342 746 361 q 679 313 708 323 q 619 302 649 302 l 619 302 q 585 305 602 302 l 585 305 q 417 71 516 178 l 417 71 q 177 -69 285 -69 z m 532 344 l 532 344 q 666 515 587 434 l 666 515 q 819 613 761 613 l 819 613 q 845 606 834 613 l 845 606 q 827 641 844 625 q 787 665 810 656 q 742 675 763 674 l 742 675 q 602 645 676 678 l 602 645 q 499 561 539 617 q 458 430 458 504 l 458 430 q 532 344 458 358 z"},"J":{"ha":822,"x_min":39,"x_max":1115,"o":"m 222 -130 l 222 -130 q 89 -87 139 -130 q 39 29 39 -45 l 39 29 q 61 120 39 79 l 61 120 q 137 221 89 175 q 242 294 185 266 q 351 322 298 322 l 351 322 q 458 290 419 322 q 496 206 496 258 l 496 206 q 485 152 496 178 q 456 108 473 126 l 456 108 q 416 80 431 80 l 416 80 q 412 84 412 80 l 412 84 q 415 93 412 87 l 415 93 q 451 195 451 146 l 451 195 q 423 268 451 239 q 348 297 395 297 l 348 297 q 258 271 303 297 q 176 202 213 244 q 114 110 138 159 l 114 110 q 89 15 89 61 l 89 15 q 129 -77 89 -46 q 232 -109 168 -109 l 232 -109 q 764 337 487 -109 l 764 337 q 934 663 930 603 l 934 663 l 875 666 q 818 661 851 667 q 752 642 785 654 q 693 613 719 630 q 655 576 666 596 l 655 576 q 646 547 646 561 l 646 547 q 665 503 646 525 l 665 503 q 684 477 684 481 l 684 477 q 672 470 684 472 l 672 470 q 664 469 669 469 l 664 469 q 624 488 643 469 l 624 488 q 602 541 602 510 l 602 541 q 620 593 602 569 l 620 593 q 690 647 645 627 q 786 676 734 667 q 883 683 837 684 l 883 683 q 932 680 892 683 l 932 680 q 943 705 930 693 q 971 716 955 716 l 971 716 q 1000 673 1001 716 l 1000 673 q 1114 615 1108 654 l 1114 615 q 1115 607 1115 611 q 1115 600 1115 603 l 1115 600 q 1104 580 1115 580 l 1104 580 q 1095 593 1095 580 l 1095 593 q 1095 598 1095 595 q 1096 604 1095 601 l 1096 604 q 997 656 1071 641 l 997 656 q 809 304 979 575 l 809 304 q 689 144 757 221 q 544 4 621 66 q 385 -94 467 -58 q 222 -130 303 -130 z"},"K":{"ha":936,"x_min":22,"x_max":1586,"o":"m 1033 -129 l 1033 -129 q 964 -115 994 -129 l 964 -115 q 879 -56 921 -94 q 799 28 837 -19 q 731 127 761 75 q 681 228 701 179 l 681 228 q 590 193 626 196 l 590 193 q 519 111 562 157 q 424 22 476 65 q 312 -48 371 -21 q 191 -76 252 -76 l 191 -76 q 68 -36 113 -76 q 22 88 22 3 l 22 88 q 45 181 22 135 q 107 264 68 227 q 192 320 146 301 l 192 320 q 311 345 249 345 l 311 345 q 367 327 346 345 q 388 279 388 308 l 388 279 q 384 262 388 266 l 384 262 q 381 261 383 261 l 381 261 q 373 269 378 261 l 373 269 q 341 310 357 300 q 296 320 325 320 l 296 320 q 211 299 252 320 q 136 241 169 277 q 82 161 102 205 q 62 71 62 116 l 62 71 q 184 -51 62 -37 l 184 -51 q 305 -12 230 -55 l 305 -12 q 544 208 417 52 l 544 208 q 521 268 521 229 l 521 268 q 550 346 521 311 l 550 346 q 635 384 582 384 l 635 384 q 663 381 650 384 l 663 381 q 715 474 690 427 q 763 569 740 521 l 763 569 q 807 675 807 660 l 807 675 q 806 677 807 677 l 806 677 q 782 670 803 679 q 733 647 761 660 q 681 620 705 633 q 648 601 657 607 l 648 601 q 580 545 614 579 l 580 545 q 536 477 536 501 l 536 477 q 546 459 536 466 l 546 459 q 608 444 567 444 l 608 444 q 613 440 613 442 l 613 440 q 581 430 613 435 l 581 430 q 531 427 549 425 l 531 427 q 506 456 506 433 l 506 456 q 549 540 506 491 l 549 540 q 643 617 592 589 l 643 617 q 832 697 792 697 l 832 697 q 849 693 842 697 l 849 693 q 853 682 853 690 l 853 682 q 685 333 853 621 l 685 333 q 694 306 688 321 q 707 270 699 290 l 707 270 l 1005 497 q 1142 600 1080 554 q 1261 678 1204 646 q 1375 727 1317 710 q 1499 744 1432 744 l 1499 744 q 1567 732 1536 744 l 1567 732 q 1586 704 1586 725 l 1586 704 q 1576 687 1586 687 l 1576 687 q 1566 693 1571 687 l 1566 693 q 1528 703 1557 703 l 1528 703 q 1486 699 1512 703 q 1423 687 1460 695 l 1423 687 q 1303 646 1366 674 q 1169 575 1239 618 l 1169 575 q 929 404 1081 520 l 929 404 q 799 307 852 345 q 716 249 745 268 l 716 249 q 770 154 738 203 q 838 60 801 105 q 916 -21 875 14 q 997 -75 957 -57 l 997 -75 q 1068 -93 1036 -93 l 1068 -93 q 1116 -56 1116 -93 l 1116 -56 q 1116 -51 1116 -54 q 1115 -46 1116 -48 l 1115 -46 q 1115 -42 1115 -44 q 1114 -40 1114 -41 l 1114 -40 q 1119 -22 1114 -30 q 1130 -15 1124 -15 l 1130 -15 q 1147 -46 1143 -15 l 1147 -46 q 1148 -51 1148 -48 q 1148 -56 1148 -54 l 1148 -56 q 1131 -96 1148 -80 q 1088 -121 1114 -113 q 1033 -129 1062 -129 z m 576 249 l 576 249 l 583 259 q 605 290 591 271 q 635 335 618 309 l 635 335 q 614 340 623 340 l 614 340 q 579 322 593 340 q 565 282 565 304 l 565 282 q 576 249 565 263 z m 620 232 l 620 232 q 633 233 630 232 l 633 233 q 673 249 646 235 l 673 249 q 666 271 669 261 q 660 289 662 281 l 660 289 q 643 264 653 278 q 620 232 633 249 z"},"L":{"ha":658,"x_min":3,"x_max":859,"o":"m 545 -109 l 545 -109 q 430 -92 489 -109 q 319 -44 371 -76 q 228 32 266 -12 l 228 32 q 76 -48 148 -48 l 76 -48 q 21 -26 39 -48 q 3 29 3 -5 l 3 29 q 51 177 3 92 l 51 177 q 123 261 96 257 l 123 261 q 164 220 143 261 l 164 220 l 227 98 q 338 251 280 169 l 338 251 q 256 358 256 288 l 256 358 q 271 414 256 388 q 308 455 285 439 q 355 471 331 471 l 355 471 q 403 440 388 471 l 403 440 q 404 434 405 437 q 400 432 402 431 l 400 432 q 380 446 393 440 q 356 452 367 452 l 356 452 q 318 436 335 452 q 291 397 300 419 q 283 358 281 375 l 283 358 q 355 269 283 307 l 355 269 q 392 324 372 294 q 435 387 412 353 l 435 387 q 766 679 634 679 l 766 679 q 859 592 859 679 l 859 592 q 782 406 859 513 l 782 406 q 686 311 744 353 q 564 245 628 269 q 439 220 499 220 l 439 220 q 412 222 425 220 q 387 227 398 223 l 387 227 q 327 151 361 193 q 252 58 293 109 l 252 58 q 304 8 270 33 q 379 -36 337 -17 q 462 -68 421 -56 q 536 -80 503 -80 l 536 -80 q 606 -71 574 -80 q 658 -44 638 -63 q 678 4 678 -26 l 678 4 q 678 12 678 8 q 677 20 678 16 l 677 20 q 677 23 677 22 q 676 25 676 24 l 676 25 q 682 35 676 35 l 682 35 q 698 20 692 35 q 704 -5 704 4 l 704 -5 q 680 -59 704 -36 q 620 -96 656 -83 q 545 -109 583 -109 z m 432 246 l 432 246 q 541 270 483 246 q 651 332 599 293 q 734 415 702 370 l 734 415 q 825 608 825 542 l 825 608 q 809 649 825 636 q 770 662 793 662 l 770 662 q 646 578 720 662 l 646 578 q 586 501 623 551 q 497 376 548 450 l 497 376 q 453 315 477 347 q 403 249 429 283 l 403 249 q 432 246 417 246 z m 78 -21 l 78 -21 q 121 -7 97 -21 q 166 26 144 6 q 202 65 188 46 l 202 65 q 172 113 188 85 q 137 178 156 141 l 137 178 q 102 221 114 226 l 102 221 q 63 157 84 218 l 63 157 q 42 43 42 96 l 42 43 q 78 -21 42 -21 z"},"M":{"ha":1136,"x_min":16,"x_max":1298,"o":"m 945 -67 l 945 -67 q 921 -58 927 -67 l 921 -58 q 903 5 903 -32 l 903 5 q 995 252 903 91 l 995 252 q 1177 524 1054 353 l 1177 524 q 1064 425 1125 481 q 933 301 1003 369 l 933 301 q 785 145 842 212 q 702 33 727 77 l 702 33 q 639 -14 676 -14 l 639 -14 q 622 -2 622 -14 l 622 -2 q 625 6 622 2 l 625 6 q 669 78 642 33 q 733 184 696 122 l 733 184 q 888 483 841 372 l 888 483 q 905 544 905 525 l 905 544 q 894 560 905 560 l 894 560 q 847 533 879 560 l 847 533 q 598 274 736 440 l 598 274 q 497 147 540 205 q 423 41 453 88 l 423 41 q 399 -12 399 4 l 399 -12 q 404 -20 399 -18 q 408 -23 408 -23 l 408 -23 q 390 -38 408 -24 l 390 -38 q 354 -46 374 -46 l 354 -46 q 319 -27 313 -46 l 319 -27 q 412 136 333 18 l 412 136 q 546 345 515 289 l 546 345 q 613 538 613 466 l 613 538 q 587 609 613 588 q 508 630 561 630 l 508 630 q 266 529 391 630 l 266 529 q 165 430 212 485 q 89 314 118 374 q 60 196 60 254 l 60 196 q 158 92 60 92 l 158 92 q 336 175 273 92 l 336 175 q 360 237 360 208 l 360 237 q 350 260 360 254 l 350 260 q 349 263 349 261 l 349 263 q 355 267 349 267 l 355 267 q 381 233 381 267 l 381 233 q 363 180 381 212 l 363 180 q 294 112 340 140 l 294 112 q 166 76 236 76 l 166 76 q 57 119 98 76 q 16 232 16 162 l 16 232 q 222 555 16 390 l 222 555 q 313 607 260 585 q 421 640 365 628 q 524 651 477 651 l 524 651 q 628 629 592 651 q 663 550 663 606 l 663 550 q 606 361 663 480 l 606 361 q 525 226 588 324 l 525 226 l 602 324 q 680 414 631 362 q 796 532 729 466 l 796 532 q 862 580 825 560 q 925 600 899 600 l 925 600 q 961 562 961 600 l 961 562 q 934 472 961 529 l 934 472 q 844 295 898 396 l 844 295 q 821 242 827 264 q 813 217 815 220 l 813 217 q 833 241 817 222 q 876 291 848 259 l 876 291 q 957 375 910 329 q 1065 472 1004 420 l 1065 472 l 1225 604 q 1259 620 1244 620 l 1259 620 q 1280 604 1273 620 q 1293 561 1286 587 l 1293 561 q 1245 490 1298 544 l 1245 490 q 1029 204 1120 362 l 1029 204 q 946 -7 946 58 l 946 -7 q 965 -36 946 -36 l 965 -36 q 1025 -15 977 -36 l 1025 -15 q 1080 7 1067 4 l 1080 7 q 1085 2 1085 5 l 1085 2 q 1032 -40 1085 -13 l 1032 -40 q 945 -67 980 -67 z"},"N":{"ha":925,"x_min":2,"x_max":1106,"o":"m 753 -96 l 753 -96 q 720 -72 728 -96 q 711 -24 711 -48 l 711 -24 q 803 223 711 62 l 803 223 q 985 495 862 324 l 985 495 q 641 285 852 483 l 641 285 q 402 12 473 126 l 402 12 q 378 -41 378 -25 l 378 -41 q 383 -50 378 -48 q 387 -52 387 -52 l 387 -52 q 368 -67 387 -54 l 368 -67 q 333 -75 354 -75 l 333 -75 q 297 -56 291 -75 l 297 -56 q 390 106 311 -12 l 390 106 q 524 315 493 259 l 524 315 q 592 508 592 437 l 592 508 q 568 577 592 558 q 499 596 543 596 l 499 596 q 246 487 380 596 l 246 487 q 144 388 191 442 q 68 275 97 333 q 39 161 39 217 l 39 161 q 128 63 39 65 l 128 63 q 315 146 252 60 l 315 146 q 339 208 339 179 l 339 208 q 328 231 339 225 l 328 231 q 327 234 327 232 l 327 234 q 333 238 327 238 l 333 238 q 359 204 359 238 l 359 204 q 342 151 359 183 l 342 151 q 259 75 314 103 q 145 47 204 47 l 145 47 q 41 86 80 47 q 2 191 2 125 l 2 191 q 216 519 2 347 l 216 519 q 304 571 252 548 q 412 607 356 594 q 514 620 467 620 l 514 620 q 608 598 573 620 q 642 520 642 575 l 642 520 q 584 332 642 449 l 584 332 q 551 272 571 306 q 504 197 531 238 l 504 197 q 605 296 535 236 l 605 296 q 838 471 731 402 q 1033 571 945 539 l 1033 571 q 1053 575 1042 575 l 1053 575 q 1101 532 1091 575 l 1101 532 q 1053 461 1106 515 l 1053 461 q 837 175 928 333 l 837 175 q 754 -37 754 29 l 754 -37 q 773 -65 754 -65 l 773 -65 q 833 -44 785 -65 l 833 -44 q 888 -22 875 -25 l 888 -22 q 893 -27 893 -24 l 893 -27 q 840 -69 893 -42 l 840 -69 q 753 -96 788 -96 z"},"O":{"ha":784,"x_min":24,"x_max":832,"o":"m 245 -59 l 245 -59 q 223 -59 234 -59 q 201 -58 212 -59 l 201 -58 q 73 -6 122 -54 q 24 125 24 42 l 24 125 q 65 288 24 197 l 65 288 q 261 506 117 403 l 261 506 q 438 601 344 565 q 628 636 532 636 l 628 636 q 731 621 684 636 q 805 576 777 606 q 832 500 832 546 l 832 500 q 828 467 832 484 q 815 432 824 449 l 815 432 l 804 411 q 812 356 812 384 l 812 356 q 684 117 812 231 l 684 117 q 245 -59 488 -59 z m 239 -39 l 239 -39 q 614 120 436 -39 l 614 120 q 752 337 742 234 l 752 337 q 572 201 700 280 l 572 201 l 564 199 q 590 227 556 199 l 590 227 l 646 273 q 708 329 682 303 q 751 376 734 355 l 751 376 q 697 472 744 432 l 697 472 q 601 524 657 507 l 601 524 q 509 533 573 531 l 509 533 q 456 538 456 535 l 456 538 q 458 541 456 539 l 458 541 q 548 556 505 556 l 548 556 q 592 553 568 556 q 644 543 616 550 l 644 543 q 791 441 749 518 l 791 441 q 801 490 801 465 l 801 490 q 778 559 801 531 q 715 601 754 587 q 627 615 675 615 l 627 615 q 337 518 476 615 l 337 518 q 133 286 208 428 l 133 286 q 78 101 78 183 l 78 101 q 211 -38 78 -31 l 211 -38 q 225 -39 218 -39 q 239 -39 232 -39 z"},"P":{"ha":1057,"x_min":43,"x_max":1196,"o":"m 213 -108 l 213 -108 q 89 -71 135 -108 q 43 34 43 -35 l 43 34 q 65 129 43 84 q 123 208 86 173 q 208 263 160 243 q 307 283 255 283 l 307 283 q 391 259 360 283 q 421 194 421 235 l 421 194 q 382 116 421 164 l 382 116 q 343 84 343 68 l 343 84 q 346 92 343 88 l 346 92 q 378 180 378 139 l 378 180 q 355 239 378 217 q 293 261 331 261 l 293 261 q 213 241 251 261 q 144 186 174 220 q 97 111 114 152 q 80 30 80 70 l 80 30 q 116 -53 80 -25 q 209 -82 151 -82 l 209 -82 q 323 -60 268 -82 q 420 1 377 -39 l 420 1 q 523 141 471 49 l 523 141 l 610 298 q 681 429 644 352 q 759 604 718 505 l 759 604 q 479 576 615 606 l 479 576 q 264 490 334 545 l 264 490 q 234 444 234 468 l 234 444 q 258 410 234 423 q 317 396 281 396 l 317 396 q 367 402 338 396 q 423 419 396 408 q 464 442 450 429 l 464 442 q 478 450 474 450 l 478 450 q 481 442 486 450 l 481 442 q 427 400 460 417 q 356 375 393 383 q 287 366 319 366 l 287 366 q 211 386 238 366 q 183 436 183 405 l 183 436 q 219 506 183 472 l 219 506 q 462 604 287 572 l 462 604 q 608 622 530 616 q 774 626 686 627 l 774 626 q 816 645 796 645 l 816 645 q 831 624 836 645 l 831 624 q 959 608 894 620 q 1077 575 1023 596 q 1163 522 1130 553 q 1196 447 1196 490 l 1196 447 q 1166 360 1196 401 q 1088 286 1135 318 q 988 235 1040 254 l 988 235 q 886 208 940 218 q 778 198 831 198 l 778 198 q 702 204 738 198 q 635 223 665 210 l 635 223 q 534 78 574 134 q 471 0 493 22 l 471 0 q 213 -108 363 -108 z m 753 222 l 753 222 q 827 230 790 222 q 905 250 863 237 l 905 250 q 990 286 947 264 q 1069 335 1033 307 q 1127 394 1105 362 q 1149 457 1149 425 l 1149 457 q 1119 520 1149 493 q 1040 563 1089 546 q 934 590 991 580 q 824 602 877 599 l 824 602 l 792 502 q 744 402 775 459 q 668 274 713 345 l 668 274 l 646 240 q 662 234 653 236 q 680 229 670 231 l 680 229 q 717 224 699 225 q 753 222 735 222 z"},"Q":{"ha":797,"x_min":18,"x_max":832,"o":"m 712 -206 l 712 -206 q 381 -45 608 -206 l 381 -45 q 201 -58 300 -64 l 201 -58 q 118 -37 156 -55 l 118 -37 q 97 -82 105 -82 l 97 -82 q 86 -54 87 -82 l 86 -54 q 86 -34 85 -43 q 88 -19 87 -26 l 88 -19 q 32 65 45 15 q 29 172 18 114 q 65 288 39 230 l 65 288 q 261 506 117 403 l 261 506 q 438 601 344 565 q 628 636 532 636 l 628 636 q 731 621 684 636 q 805 576 777 606 q 832 500 832 546 l 832 500 q 815 432 832 468 l 815 432 l 804 411 q 812 356 812 384 l 812 356 q 684 117 812 231 l 684 117 q 443 -27 570 15 l 443 -27 q 717 -173 646 -173 l 717 -173 q 746 -165 732 -173 q 759 -143 759 -157 l 759 -143 q 752 -123 759 -133 l 752 -123 q 749 -112 749 -115 l 749 -112 q 766 -117 749 -98 l 766 -117 q 784 -157 784 -136 l 784 -157 q 764 -191 784 -177 q 712 -206 744 -206 z m 394 6 l 411 -5 q 517 47 466 15 q 614 120 567 78 l 614 120 q 752 337 741 232 l 752 337 q 572 201 700 280 l 572 201 l 564 199 q 590 227 556 199 l 590 227 l 646 273 q 708 330 681 304 q 751 376 734 355 l 751 376 q 697 472 744 432 l 697 472 q 601 524 657 507 l 601 524 q 509 533 573 531 l 509 533 q 456 538 456 535 l 456 538 q 458 541 456 539 l 458 541 q 548 556 505 556 l 548 556 q 592 553 568 556 q 644 543 616 550 l 644 543 q 791 441 749 518 l 791 441 q 801 490 801 465 l 801 490 q 778 559 801 531 q 715 601 754 587 q 627 615 675 615 l 627 615 q 337 518 476 615 l 337 518 q 133 286 208 428 l 133 286 q 93 190 108 240 q 78 95 77 140 q 100 17 78 50 l 100 17 q 127 66 111 44 l 127 66 q 194 102 153 102 l 194 102 q 282 75 234 102 q 394 6 330 47 l 394 6 z m 211 -38 l 211 -38 q 350 -24 278 -41 l 350 -24 q 187 46 235 46 l 187 46 q 136 14 151 46 l 136 14 l 126 -10 q 211 -38 160 -37 z"},"R":{"ha":752,"x_min":-42,"x_max":912,"o":"m 638 -112 l 638 -112 q 570 -80 598 -112 q 520 2 541 -48 q 483 105 499 52 l 483 105 q 452 249 446 226 l 452 249 q 350 118 393 170 q 280 39 307 65 l 280 39 q 41 -75 162 -75 l 41 -75 q -18 -60 5 -75 q -42 -10 -42 -45 l -42 -10 q -32 38 -42 12 q -7 86 -22 63 q 23 124 8 109 l 23 124 q 78 157 56 157 l 78 157 q 82 155 82 157 l 82 155 q 67 138 82 150 l 67 138 q 9 74 32 110 q -14 7 -14 37 l -14 7 q 65 -46 -14 -49 l 65 -46 q 423 266 194 -41 l 423 266 q 445 290 436 283 l 445 290 l 429 296 q 408 291 416 291 l 408 291 q 387 308 387 291 l 387 308 q 418 338 387 331 l 418 338 q 467 321 437 343 l 467 321 q 543 405 506 365 q 609 471 579 445 q 657 496 639 496 l 657 496 q 681 474 681 496 l 681 474 q 677 456 681 465 q 666 446 672 446 l 666 446 q 660 452 660 445 l 660 452 q 666 464 660 457 l 666 464 l 666 468 q 662 477 666 474 l 662 477 q 502 308 636 494 l 502 308 q 526 307 513 307 q 552 306 538 306 l 552 306 q 842 426 784 306 l 842 426 q 854 474 854 452 l 854 474 q 813 551 854 518 l 813 551 q 716 592 776 581 q 595 602 655 602 l 595 602 q 312 529 462 602 l 312 529 q 130 320 130 440 l 130 320 q 181 281 130 281 l 181 281 q 287 319 228 281 l 287 319 q 357 388 338 353 l 357 388 q 370 401 364 401 l 370 401 q 374 393 377 401 l 374 393 q 289 297 355 337 l 289 297 q 157 258 225 258 l 157 258 q 82 310 76 258 l 82 310 q 243 533 97 441 l 243 533 q 593 624 388 624 l 593 624 q 745 610 671 624 q 864 558 818 596 l 864 558 q 912 464 912 518 l 912 464 q 901 414 912 441 l 901 414 q 849 348 884 375 q 768 303 814 320 q 671 278 722 286 q 572 270 620 270 l 572 270 q 523 272 546 270 q 479 278 499 274 l 479 278 q 500 209 485 259 q 538 79 515 159 l 538 79 q 558 31 545 57 q 586 -18 570 5 q 621 -56 602 -41 q 658 -71 639 -71 l 658 -71 q 728 14 700 -71 l 728 14 q 739 34 733 34 l 739 34 q 748 15 744 34 l 748 15 q 749 7 749 12 l 749 7 q 721 -57 749 -19 l 721 -57 q 638 -112 684 -112 z"},"S":{"ha":748,"x_min":-17,"x_max":852,"o":"m 279 -95 l 279 -95 q 177 -46 238 -95 l 177 -46 q 104 -27 134 -39 q 53 0 73 -16 l 53 0 q 4 64 25 24 q -17 141 -17 104 l -17 141 q -4 191 -17 169 l -4 191 q 72 244 26 244 l 72 244 q 113 185 107 244 l 113 185 q 125 98 120 130 q 132 55 129 65 l 132 55 q 183 -28 147 6 l 183 -28 q 274 -37 225 -37 l 274 -37 q 481 4 382 -37 l 481 4 q 563 51 523 22 q 629 115 603 80 q 655 183 655 150 l 655 183 q 572 256 655 230 l 572 256 l 396 296 q 310 339 342 308 q 277 408 277 369 l 277 408 q 352 528 277 468 l 352 528 q 441 581 390 559 q 549 614 492 602 q 657 625 605 625 l 657 625 q 784 602 731 625 q 849 535 836 579 l 849 535 q 852 513 852 525 l 852 513 q 791 428 852 452 l 791 428 q 728 413 754 413 l 728 413 q 703 419 712 413 l 703 419 q 701 424 701 421 l 701 424 q 729 432 701 431 l 729 432 q 757 435 746 433 q 773 439 768 437 l 773 439 q 811 498 811 459 l 811 498 q 800 540 811 518 l 800 540 q 645 597 769 597 l 645 597 q 552 588 600 597 q 461 560 504 578 q 388 513 418 541 l 388 513 q 336 427 336 465 l 336 427 q 365 376 336 398 q 451 342 393 353 l 451 342 l 569 320 q 679 282 637 307 q 721 204 721 256 l 721 204 q 698 118 721 158 q 637 47 675 78 q 549 -6 598 15 l 549 -6 q 287 -55 438 -55 l 287 -55 q 249 -54 268 -55 q 212 -51 230 -53 l 212 -51 q 248 -67 226 -59 q 297 -82 269 -75 l 297 -82 q 300 -86 300 -83 l 300 -86 q 279 -95 300 -95 z m 147 -18 l 147 -18 q 105 44 120 12 l 105 44 q 72 167 83 94 l 72 167 q 55 220 64 220 l 55 220 q 34 208 47 220 q 20 157 20 196 l 20 157 q 74 25 20 81 l 74 25 q 147 -18 101 -3 z"},"T":{"ha":661,"x_min":18,"x_max":1077,"o":"m 169 -101 l 169 -101 q 59 -59 90 -101 q 28 65 28 -17 l 28 65 q 92 281 28 175 l 92 281 q 18 420 18 328 l 18 420 q 116 617 18 531 l 116 617 q 400 714 226 714 l 400 714 q 497 708 455 714 q 578 688 539 701 q 660 655 616 675 q 764 607 704 635 l 764 607 q 978 541 910 541 l 978 541 q 1035 557 1011 541 q 1059 595 1059 572 l 1059 595 q 1046 622 1059 610 l 1046 622 q 1039 636 1039 632 l 1039 636 q 1041 638 1039 638 l 1041 638 q 1063 621 1049 638 q 1077 584 1077 604 l 1077 584 q 1061 546 1077 562 q 1019 522 1044 530 q 966 513 993 513 l 966 513 q 745 580 891 513 l 745 580 q 652 623 691 605 q 580 652 613 640 q 515 669 547 663 q 442 674 482 674 l 442 674 q 116 540 235 674 l 116 540 q 91 500 103 526 q 72 444 79 473 q 64 392 64 415 l 64 392 q 105 302 64 334 l 105 302 q 180 387 137 349 q 271 446 222 424 q 372 468 320 468 l 372 468 q 462 398 462 468 l 462 398 q 363 215 462 314 l 363 215 q 181 117 265 117 l 181 117 q 127 163 127 117 l 127 163 q 136 191 127 179 q 156 200 144 203 l 156 200 q 155 188 156 195 q 154 177 154 180 l 154 177 q 200 162 154 162 l 200 162 q 346 234 268 162 l 346 234 q 412 314 384 270 q 439 396 439 358 l 439 396 q 381 441 439 441 l 381 441 q 297 418 339 441 q 216 359 254 395 q 147 281 178 322 l 147 281 q 160 277 152 279 q 178 273 168 275 l 178 273 l 238 271 q 282 261 282 269 l 282 261 q 242 247 282 247 l 242 247 q 208 248 224 247 q 176 251 191 249 l 176 251 q 155 256 165 253 q 134 262 144 258 l 134 262 q 57 45 57 144 l 57 45 q 156 -83 57 -83 l 156 -83 q 389 73 268 -83 l 389 73 l 585 365 q 776 529 692 524 l 776 529 l 814 520 q 832 484 832 511 l 832 484 q 822 470 832 470 l 822 470 q 808 473 819 470 q 790 475 796 475 l 790 475 q 613 326 719 475 l 613 326 l 414 48 q 169 -101 286 -101 z"},"U":{"ha":801,"x_min":14,"x_max":972,"o":"m 345 -19 l 345 -19 q 302 10 302 -19 l 302 10 q 447 267 302 62 l 447 267 q 543 403 506 350 q 595 479 580 456 l 595 479 q 656 607 656 573 l 656 607 q 635 632 656 626 q 587 638 613 638 l 587 638 q 306 521 477 638 l 306 521 q 216 447 261 490 q 132 354 170 403 q 71 257 94 305 q 47 166 47 208 l 47 166 q 65 120 47 132 q 119 107 83 107 l 119 107 q 224 140 170 107 l 224 140 q 292 193 251 156 l 292 193 l 310 199 q 234 128 291 163 l 234 128 q 106 89 170 89 l 106 89 q 37 117 59 89 q 14 186 14 145 l 14 186 q 310 555 14 343 l 310 555 q 400 607 349 583 q 504 646 451 631 q 601 661 557 661 l 601 661 q 647 656 624 661 q 684 638 669 650 q 698 604 698 625 l 698 604 q 654 504 698 574 l 654 504 q 606 433 639 480 q 520 315 572 386 l 520 315 q 432 181 476 256 l 432 181 q 404 130 418 157 q 380 80 389 103 q 371 43 371 57 l 371 43 q 385 26 371 26 l 385 26 q 486 82 412 26 l 486 82 q 900 517 662 216 l 900 517 q 961 565 938 565 l 961 565 q 970 556 970 565 l 970 556 q 967 546 970 552 l 967 546 q 944 483 972 522 l 944 483 l 826 316 q 763 223 792 269 q 707 132 733 176 l 707 132 q 648 10 644 26 l 648 10 l 666 16 q 711 46 684 26 q 753 81 738 66 l 753 81 q 769 91 766 91 l 769 91 q 771 89 771 89 l 771 89 q 744 51 771 80 l 744 51 q 640 -10 674 -10 l 640 -10 q 614 9 614 -10 l 614 9 q 654 101 614 28 l 654 101 q 737 243 690 168 q 839 400 783 317 l 839 400 q 816 373 832 391 q 776 329 800 355 l 776 329 q 668 220 712 264 q 599 150 624 175 l 599 150 q 481 38 507 58 l 481 38 q 345 -19 408 -19 z"},"V":{"ha":690,"x_min":-19,"x_max":1210,"o":"m 332 -71 l 332 -71 q 327 -61 327 -71 l 327 -61 q 383 107 327 -28 l 383 107 q 417 185 400 146 q 450 263 434 224 l 450 263 l 496 398 q 514 457 507 432 q 520 497 520 481 l 520 497 q 480 603 520 567 q 374 638 440 638 l 374 638 q 252 611 312 638 q 142 536 191 583 q 62 431 92 489 l 62 431 q 19 281 19 349 l 19 281 q 42 196 19 234 q 102 144 65 158 l 102 144 q 153 135 128 135 l 153 135 q 218 151 188 135 q 267 194 248 166 q 285 257 285 222 l 285 257 q 285 266 285 261 q 284 274 285 270 l 284 274 q 290 286 280 286 l 290 286 q 302 270 301 286 l 302 270 q 304 262 303 266 q 304 253 304 258 l 304 253 q 280 186 304 217 q 219 136 256 155 q 141 116 181 116 l 141 116 q 62 136 100 116 l 62 136 q -19 289 -19 180 l -19 289 q 23 440 -19 367 l 23 440 q 122 555 61 506 q 256 632 183 604 q 401 659 329 659 l 401 659 q 491 644 451 659 q 555 597 531 628 q 578 516 578 565 l 578 516 q 494 237 578 423 l 494 237 q 398 0 398 26 l 398 0 q 403 -5 398 -7 l 403 -5 q 638 263 429 12 l 638 263 q 820 471 745 391 q 937 581 894 550 l 937 581 q 1003 629 975 610 q 1048 657 1031 647 l 1048 657 q 1162 691 1110 691 l 1162 691 q 1198 687 1185 691 q 1210 662 1210 682 l 1210 662 q 1201 649 1210 649 l 1201 649 q 1187 654 1198 649 q 1165 658 1176 658 l 1165 658 q 1054 627 1112 658 l 1054 627 q 788 405 938 565 l 788 405 q 688 291 745 359 q 558 132 630 223 l 558 132 q 421 -25 444 -12 l 421 -25 q 357 -60 378 -50 q 332 -71 335 -71 z"},"W":{"ha":1135,"x_min":15,"x_max":1257,"o":"m 217 -112 l 217 -112 q 199 -89 199 -112 l 199 -89 q 217 -33 199 -67 l 217 -33 l 410 245 q 542 455 499 373 q 585 571 585 537 l 585 571 q 573 595 585 587 q 545 606 561 603 q 515 609 529 609 l 515 609 q 278 505 430 609 l 278 505 q 199 440 235 476 q 132 363 163 404 l 132 363 q 72 225 72 281 l 72 225 q 112 173 72 182 l 112 173 q 146 169 127 169 l 146 169 q 218 187 182 169 q 288 233 254 205 l 288 233 q 318 255 314 255 l 318 255 q 321 248 322 255 l 321 248 q 292 208 315 227 q 237 174 269 189 q 173 150 205 158 q 115 141 140 141 l 115 141 q 45 162 75 141 q 15 222 15 182 l 15 222 q 86 372 15 283 l 86 372 q 254 525 154 458 l 254 525 q 350 579 295 553 q 461 621 405 604 q 561 637 517 637 l 561 637 q 640 585 640 637 l 640 585 q 545 368 640 522 l 545 368 q 368 116 478 262 l 368 116 q 276 -5 277 -5 l 276 -5 q 372 98 279 -5 l 372 98 q 480 213 429 162 q 573 301 530 263 l 573 301 q 624 349 594 320 q 694 415 654 377 l 694 415 q 763 473 729 447 q 824 499 796 499 l 824 499 q 862 485 853 499 l 862 485 q 690 206 770 371 l 690 206 q 633 27 633 88 l 633 27 q 652 -25 633 -9 q 702 -41 671 -41 l 702 -41 q 774 -22 736 -41 q 848 27 811 -3 q 917 90 885 57 l 917 90 q 1100 341 1032 206 l 1100 341 q 1153 510 1153 447 l 1153 510 q 1153 521 1153 516 q 1151 530 1152 526 l 1151 530 q 1106 552 1130 530 l 1106 552 q 1091 577 1091 564 l 1091 577 q 1101 597 1091 589 q 1124 605 1111 605 l 1124 605 q 1152 588 1143 605 l 1152 588 q 1168 568 1156 580 l 1168 568 q 1175 556 1176 560 l 1175 556 q 1195 547 1181 547 l 1195 547 q 1222 559 1209 547 q 1249 571 1234 571 l 1249 571 q 1257 565 1257 571 l 1257 565 q 1238 544 1257 554 l 1238 544 q 1214 535 1228 537 l 1214 535 q 1198 534 1206 534 q 1182 535 1190 533 l 1182 535 q 1194 476 1194 495 l 1194 476 q 1118 269 1194 396 l 1118 269 q 1031 148 1080 205 q 921 41 982 91 l 921 41 q 706 -61 800 -61 l 706 -61 q 603 35 603 -61 l 603 35 q 622 138 603 80 q 667 252 641 195 l 667 252 l 739 409 q 668 354 695 375 q 622 317 640 332 q 587 287 603 302 q 547 249 570 271 l 547 249 q 480 178 522 224 q 382 62 438 131 l 382 62 l 266 -80 q 243 -102 256 -92 q 217 -112 230 -112 z"},"X":{"ha":640,"x_min":-167,"x_max":1033,"o":"m -73 -76 l -73 -76 q -167 25 -167 -76 l -167 25 q -110 200 -167 106 l -110 200 q -76 235 -89 235 l -76 235 q -72 230 -72 235 l -72 230 q -79 212 -72 222 l -79 212 q -134 49 -134 124 l -134 49 q -113 -24 -134 4 q -55 -53 -92 -53 l -55 -53 q 210 80 25 -53 l 210 80 q 351 188 279 130 q 495 313 422 246 l 495 313 l 511 327 q 534 496 534 427 l 534 496 q 514 591 534 560 q 440 622 493 622 l 440 622 q 350 603 396 622 q 263 551 304 583 q 191 478 221 518 l 191 478 q 128 313 128 393 l 128 313 q 186 238 128 238 l 186 238 q 265 267 218 238 l 265 267 q 277 277 279 276 l 277 277 q 278 277 278 277 q 278 276 278 276 l 278 276 q 270 264 280 274 l 270 264 q 165 224 230 224 l 165 224 q 100 247 123 224 q 81 311 77 270 l 81 311 q 214 543 93 444 l 214 543 q 444 634 326 634 l 444 634 q 548 596 516 634 q 580 480 580 557 l 580 480 q 577 434 580 458 q 569 381 574 409 l 569 381 q 676 472 622 428 q 781 555 729 515 l 781 555 q 946 661 904 649 l 946 661 q 1000 671 980 671 l 1000 671 q 1023 665 1013 671 q 1033 652 1033 658 l 1033 652 q 1007 644 1033 644 l 1007 644 q 764 502 940 644 l 764 502 q 654 409 706 455 q 558 318 602 362 l 558 318 q 537 249 551 297 l 537 249 q 505 117 515 170 q 494 37 494 64 l 494 37 q 511 8 494 8 l 511 8 q 655 110 552 8 l 655 110 q 672 116 672 127 l 672 116 q 597 31 672 87 l 597 31 q 533 -12 567 9 q 473 -34 498 -34 l 473 -34 q 440 14 440 -34 l 440 14 q 486 227 440 56 l 486 227 l 497 271 q 289 102 385 173 q 110 -13 192 31 l 110 -13 q -73 -76 -5 -76 z"},"Y":{"ha":882,"x_min":14,"x_max":950,"o":"m 336 -254 l 336 -254 q 286 -242 311 -254 q 243 -210 260 -230 q 225 -167 225 -190 l 225 -167 q 246 -146 225 -146 l 246 -146 q 254 -146 250 -146 q 261 -148 257 -147 l 261 -148 q 286 -211 273 -191 q 339 -232 299 -232 l 339 -232 q 475 -147 401 -232 q 641 104 548 -62 l 641 104 l 821 425 l 717 314 q 611 203 653 246 q 549 140 569 160 l 549 140 q 478 73 513 104 q 409 23 443 42 q 338 4 374 4 l 338 4 q 281 71 281 4 l 281 71 q 349 236 281 151 l 349 236 q 399 296 374 266 q 449 357 424 326 l 449 357 q 568 524 530 459 l 568 524 q 590 568 582 549 q 597 602 597 587 l 597 602 q 578 635 597 624 q 517 645 559 645 l 517 645 q 224 517 411 645 l 224 517 q 141 446 180 488 q 78 358 102 404 q 54 269 54 312 l 54 269 q 81 206 54 225 q 146 186 107 186 l 146 186 q 259 230 197 186 l 259 230 q 341 282 332 279 l 341 282 q 262 201 331 245 l 262 201 q 120 154 186 154 l 120 154 q 41 190 68 154 q 14 274 14 226 l 14 274 q 213 552 14 410 l 213 552 q 310 606 253 581 q 425 647 366 631 q 531 662 484 662 l 531 662 q 607 645 575 662 q 639 590 639 628 l 639 590 q 580 453 639 544 l 580 453 q 512 357 555 414 q 406 226 468 300 l 406 226 q 360 150 381 197 l 360 150 q 339 76 339 104 l 339 76 q 360 49 339 49 l 360 49 q 425 80 382 49 l 425 80 q 676 299 547 167 l 676 299 q 847 499 790 415 l 847 499 q 934 558 888 558 l 934 558 q 950 548 950 558 l 950 548 q 950 544 950 546 q 948 540 949 542 l 948 540 q 810 301 895 447 q 605 -44 724 155 l 605 -44 q 528 -146 572 -98 q 435 -224 484 -194 q 336 -254 386 -254 z"},"Z":{"ha":739,"x_min":-82,"x_max":941,"o":"m 611 -118 l 611 -118 q 606 -113 606 -118 l 606 -113 q 619 -89 606 -101 l 619 -89 q 629 -71 629 -80 l 629 -71 q 610 -43 629 -56 q 558 -20 590 -31 q 489 -2 526 -10 q 417 10 452 5 q 354 14 381 14 l 354 14 q 271 11 319 15 q 162 -2 223 7 l 162 -2 q 54 -15 101 -11 q -28 -19 6 -20 l -28 -19 q -48 -33 -44 -33 l -48 -33 q -50 -30 -50 -33 l -50 -30 q -44 -16 -50 -26 l -44 -16 q -81 2 -80 -14 l -81 2 q -66 35 -82 19 l -66 35 q -37 52 -49 52 l -37 52 q -33 50 -35 52 l -33 50 q 10 36 -28 42 l 10 36 q 735 559 263 300 l 735 559 l 705 565 q 626 577 668 573 q 536 581 584 581 l 536 581 q 327 551 410 581 l 327 551 q 289 537 310 547 q 249 514 267 527 q 222 487 231 501 l 222 487 q 216 448 212 469 l 216 448 q 215 429 220 431 q 205 426 210 426 l 205 426 q 186 440 194 426 q 177 474 177 454 l 177 474 q 182 503 177 486 l 182 503 q 305 597 201 567 l 305 597 q 461 612 358 612 l 461 612 q 600 607 533 612 q 729 590 667 601 l 729 590 q 779 581 744 589 l 779 581 l 834 611 q 859 615 842 615 l 859 615 q 896 605 896 615 l 896 605 q 887 598 896 601 l 887 598 q 869 587 882 594 q 836 569 856 580 l 836 569 l 875 566 q 909 570 898 565 q 916 591 919 575 l 916 591 q 918 596 914 596 l 918 596 q 932 583 923 596 q 941 558 941 570 l 941 558 q 908 533 941 533 l 908 533 q 881 537 907 533 q 801 549 854 541 l 801 549 q 631 447 721 503 q 441 322 541 390 l 441 322 q 225 165 320 239 q 60 26 130 91 l 60 26 q 197 41 119 33 q 371 57 275 49 l 371 57 q 474 57 418 60 q 579 44 529 54 q 661 16 629 34 q 692 -30 692 -2 l 692 -30 q 663 -83 692 -54 l 663 -83 q 611 -118 625 -118 z"},"a":{"ha":412,"x_min":-18,"x_max":477,"o":"m 67 -5 l 67 -5 q 19 12 43 -5 q -8 52 -5 29 l -8 52 q 89 235 -18 129 l 89 235 q 280 341 195 341 l 280 341 q 316 330 303 341 l 316 330 q 327 311 323 323 q 332 299 330 299 l 332 299 q 339 301 336 299 q 346 302 342 302 l 346 302 q 367 293 358 302 q 377 277 376 284 l 377 277 q 313 178 378 275 l 313 178 q 254 49 248 83 l 254 49 q 276 26 259 26 l 276 26 q 466 198 328 26 l 466 198 q 472 202 469 202 l 472 202 q 477 195 477 202 l 477 195 q 468 175 477 187 l 468 175 q 273 4 341 4 l 273 4 q 256 7 264 4 l 256 7 q 212 73 212 24 l 212 73 q 216 107 212 90 l 216 107 l 154 47 q 104 7 126 19 q 67 -5 81 -5 z m 58 17 l 58 17 q 216 144 116 17 l 216 144 l 322 290 q 296 304 314 304 l 296 304 q 131 206 235 304 l 131 206 q 34 41 23 106 l 34 41 q 58 17 39 17 z"},"&":{"ha":753,"x_min":13,"x_max":745,"o":"m 374 -134 l 374 -134 q 278 -113 320 -134 q 210 -54 235 -92 q 185 35 185 -16 l 185 35 q 185 47 185 41 q 186 58 185 52 l 186 58 q 99 78 138 63 q 36 120 59 93 q 13 185 13 146 l 13 185 q 35 254 13 221 q 91 315 57 286 q 161 364 124 343 l 161 364 q 296 427 230 406 l 296 427 q 276 465 283 443 q 268 506 268 486 l 268 506 q 295 571 268 542 q 363 619 321 599 q 452 650 405 639 q 539 661 499 661 l 539 661 q 645 596 645 661 l 645 596 q 622 544 645 566 q 571 522 599 522 l 571 522 q 544 536 544 522 l 544 536 q 557 546 544 546 l 557 546 q 567 544 561 546 l 567 544 q 574 543 569 543 l 574 543 q 599 558 587 543 l 599 558 q 615 594 615 577 l 615 594 q 584 633 615 621 l 584 633 q 533 640 564 640 l 533 640 q 454 627 493 640 q 382 590 414 613 q 329 536 349 566 q 309 472 309 506 l 309 472 q 321 434 309 448 l 321 434 q 388 445 359 445 l 388 445 q 446 422 446 445 l 446 422 q 429 400 446 409 q 392 390 412 390 l 392 390 q 307 416 342 390 l 307 416 q 248 391 279 408 q 183 349 217 374 l 183 349 q 103 274 137 315 q 69 185 69 232 l 69 185 q 190 86 69 96 l 190 86 q 238 214 201 157 q 334 308 274 271 l 334 308 q 412 342 368 329 q 500 362 455 354 q 581 375 544 369 l 581 375 q 660 393 630 383 q 705 414 690 403 l 705 414 q 722 432 716 422 q 727 450 727 442 l 727 450 q 725 462 727 456 q 730 467 723 467 l 730 467 q 741 458 737 467 q 745 441 745 449 l 745 441 q 725 398 745 421 l 725 398 q 672 365 703 376 q 607 348 641 354 q 540 334 573 342 l 540 334 q 559 280 559 316 l 559 280 q 475 138 559 206 l 475 138 q 352 75 417 92 q 211 57 286 57 l 211 57 q 210 45 210 51 q 209 32 209 38 l 209 32 q 255 -77 209 -35 q 374 -119 300 -119 l 374 -119 q 417 -102 399 -119 q 435 -65 435 -86 l 435 -65 q 432 -51 435 -58 l 432 -51 q 431 -46 431 -49 l 431 -46 q 439 -40 431 -40 l 439 -40 q 450 -66 450 -40 l 450 -66 q 427 -113 450 -93 q 374 -134 404 -134 z m 387 406 l 387 406 q 416 418 412 406 l 416 418 q 387 428 417 428 l 387 428 q 333 422 363 428 l 333 422 q 387 406 358 406 z m 214 85 l 214 85 q 348 106 279 85 q 463 170 416 127 l 463 170 q 526 287 526 227 l 526 287 q 488 331 526 331 l 488 331 q 439 322 477 331 l 439 322 q 214 85 246 250 z"},"^":{"ha":370,"x_min":64,"x_max":336,"o":"m 336 331 l 332 324 q 257 359 309 326 l 257 359 q 213 389 231 376 q 186 412 195 402 l 186 412 q 72 328 86 328 l 72 328 q 64 338 64 328 l 64 338 q 125 398 64 349 l 125 398 q 200 451 187 450 l 200 451 l 206 449 q 331 341 244 407 l 331 341 l 336 331 z"},"~":{"ha":303,"x_min":48,"x_max":269,"o":"m 202 396 l 202 396 q 169 403 187 396 q 133 417 150 410 q 103 423 116 423 l 103 423 q 70 410 86 423 l 70 410 q 49 397 54 397 l 49 397 q 48 400 48 398 l 48 400 q 90 440 48 415 l 90 440 q 127 450 106 450 l 127 450 q 174 440 147 450 q 222 429 200 429 l 222 429 q 263 451 247 429 l 263 451 q 269 447 269 451 l 269 447 q 230 405 269 432 l 230 405 q 202 396 217 396 z"},"*":{"ha":352,"x_min":37,"x_max":328,"o":"m 154 218 l 154 218 q 146 230 148 218 l 146 230 q 145 236 145 232 q 145 243 145 239 l 145 243 l 159 319 l 107 280 q 67 266 77 259 l 67 266 q 65 271 65 268 l 65 271 q 77 290 65 278 l 77 290 l 143 338 l 80 338 q 40 349 43 338 l 40 349 q 62 363 37 359 l 62 363 l 151 367 q 135 392 144 378 q 114 421 125 405 l 114 421 q 96 454 96 442 l 96 454 q 103 461 96 461 l 103 461 q 123 449 110 461 l 123 449 l 174 385 l 192 459 q 204 492 195 476 l 204 492 q 213 480 212 497 l 213 480 q 202 381 216 456 l 202 381 l 260 421 q 291 438 286 440 l 291 438 q 290 422 299 435 l 290 422 q 266 398 283 412 q 222 364 248 383 l 222 364 l 301 364 q 323 360 320 364 l 323 360 q 320 351 328 356 l 320 351 q 273 339 305 341 l 273 339 q 250 338 264 338 q 216 337 236 338 l 216 337 l 262 275 q 281 245 282 249 l 281 245 q 265 246 278 237 l 265 246 q 237 271 255 253 q 192 317 218 289 l 192 317 l 174 254 q 167 233 167 236 l 167 233 q 154 218 161 218 z"},"@":{"ha":842,"x_min":14,"x_max":821,"o":"m 233 26 l 233 26 q 213 26 223 26 q 191 27 202 26 l 191 27 q 65 78 112 32 l 65 78 q 14 209 14 128 l 14 209 q 55 371 14 281 l 55 371 q 252 588 107 484 l 252 588 q 578 715 412 702 l 578 715 q 599 716 589 716 q 618 716 608 716 l 618 716 q 771 677 717 716 l 771 677 q 821 582 821 641 l 821 582 q 805 514 821 547 l 805 514 q 795 492 794 493 l 795 492 q 802 439 802 468 l 802 439 q 674 201 802 314 l 674 201 q 233 26 478 26 z m 201 48 l 201 48 q 604 204 414 35 l 604 204 q 741 412 726 314 l 741 412 q 737 414 739 414 l 737 414 l 615 279 q 464 190 523 190 l 464 190 q 438 194 449 190 l 438 194 q 394 260 394 211 l 394 260 q 395 273 394 266 q 396 286 395 279 l 396 286 q 392 288 394 288 l 392 288 q 249 183 283 183 l 249 183 q 202 199 224 183 l 202 199 q 174 238 177 215 l 174 238 q 271 420 164 316 l 271 420 q 462 524 378 524 l 462 524 q 508 495 500 524 l 508 495 q 510 490 509 491 q 510 489 510 488 l 510 489 l 510 487 l 511 485 q 514 483 513 483 l 514 483 q 521 485 517 483 q 528 486 525 486 l 528 486 q 549 477 539 486 q 559 461 558 468 l 559 461 q 540 426 559 454 l 540 426 q 508 380 524 403 q 475 333 492 356 l 475 333 q 436 236 432 263 l 436 236 q 460 212 441 212 l 460 212 q 583 292 495 212 l 583 292 q 667 374 627 333 q 740 457 706 415 l 740 457 l 740 459 q 687 554 733 513 l 687 554 q 591 605 647 590 l 591 605 q 523 613 564 613 l 523 613 q 455 616 470 615 l 455 616 l 447 618 q 448 622 446 621 l 448 622 q 539 638 495 638 l 539 638 q 583 635 559 638 q 634 625 606 632 l 634 625 q 779 528 736 601 l 779 528 q 783 528 782 524 l 783 528 q 791 571 791 552 l 791 571 q 769 636 791 605 l 769 636 q 618 696 727 696 l 618 696 q 368 620 498 696 l 368 620 q 156 431 238 544 l 156 431 q 68 186 68 309 l 68 186 q 201 48 68 55 z m 240 205 l 240 205 q 379 307 291 205 l 379 307 q 421 360 393 323 q 490 455 449 397 l 490 455 l 503 473 q 503 475 504 474 l 503 475 q 479 487 496 487 l 479 487 q 313 391 417 487 l 313 391 q 216 228 206 291 l 216 228 q 240 205 219 205 z"},"b":{"ha":365,"x_min":-5,"x_max":401,"o":"m 48 -1 l 48 -1 q -5 79 -5 -1 l -5 79 q 111 309 -5 142 l 111 309 q 292 480 230 480 l 292 480 q 315 473 304 480 q 326 453 326 465 l 326 453 q 253 375 326 454 l 253 375 q 177 289 211 329 q 117 214 143 249 l 117 214 q 44 68 44 114 l 44 68 q 52 42 44 55 q 72 28 59 28 l 72 28 q 121 46 95 28 q 171 91 147 64 q 212 147 195 118 q 235 197 229 175 l 235 197 q 228 249 228 218 l 228 249 q 279 316 228 324 l 279 316 q 293 306 289 315 q 296 285 296 297 l 296 285 q 289 235 296 260 q 277 193 281 210 l 277 193 q 296 147 281 170 q 332 123 310 123 l 332 123 q 383 155 354 123 l 383 155 q 395 162 389 162 l 395 162 q 401 155 400 162 l 401 155 q 393 138 401 149 l 393 138 q 328 101 362 101 l 328 101 q 249 173 279 101 l 249 173 q 197 89 230 129 q 126 24 164 49 q 48 -1 87 -1 z"},"\\":{"ha":551,"x_min":23,"x_max":588,"o":"m 571 -124 l 571 -124 q 550 -114 557 -124 l 550 -114 q 550 -105 546 -106 l 550 -105 q 561 -81 561 -98 q 555 -48 560 -64 l 555 -48 q 335 289 523 36 l 335 289 q 181 489 255 396 q 39 660 107 581 l 39 660 q 35 690 23 679 l 35 690 q 54 698 43 698 l 54 698 q 305 396 78 698 l 305 396 q 566 2 535 87 l 566 2 q 588 -95 588 -58 l 588 -95 q 571 -124 588 -124 z"},"|":{"ha":219,"x_min":51,"x_max":158,"o":"m 52 -102 l 52 -102 q 51 -101 51 -102 l 51 -101 q 61 -58 51 -97 q 86 59 70 -19 l 86 59 q 103 181 95 114 q 115 316 110 247 q 119 445 119 385 l 119 445 q 118 506 119 477 q 113 558 117 535 l 113 558 l 106 587 q 101 616 101 607 l 101 616 q 118 626 101 626 l 118 626 q 158 540 158 626 l 158 540 q 155 461 158 513 q 145 342 151 408 q 131 206 139 275 q 114 75 123 136 q 95 -30 104 13 q 76 -85 85 -73 l 76 -85 q 52 -102 64 -102 z"},"{":{"ha":323,"x_min":9,"x_max":377,"o":"m 203 -122 l 203 -122 q 119 -108 147 -122 l 119 -108 q 80 -34 80 -88 l 80 -34 q 89 35 80 -3 q 107 110 98 72 q 116 179 116 148 l 116 179 q 9 259 116 257 l 9 259 l 20 275 q 94 291 65 280 q 139 326 122 302 q 165 393 156 350 l 165 393 l 187 516 q 236 606 202 578 l 236 606 q 364 640 279 641 l 364 640 l 366 640 q 377 631 373 640 l 377 631 l 364 626 q 256 583 287 626 l 256 583 q 221 474 235 554 l 221 474 q 215 440 219 460 q 203 391 210 419 l 203 391 q 87 265 170 285 l 87 265 q 153 174 153 241 l 153 174 q 145 107 153 144 q 128 32 136 70 q 120 -38 120 -6 l 120 -38 q 148 -96 120 -84 l 148 -96 l 213 -108 l 222 -116 q 203 -122 209 -122 z"},"}":{"ha":425,"x_min":15,"x_max":421,"o":"m 26 -120 l 26 -120 q 15 -111 20 -120 l 15 -111 q 66 -102 26 -106 l 66 -102 q 162 -30 134 -97 l 162 -30 l 201 92 q 259 201 226 171 l 259 201 q 305 235 280 221 q 357 257 329 249 l 357 257 q 284 336 284 275 l 284 336 q 309 452 284 378 l 309 452 q 334 567 334 526 l 334 567 q 307 613 334 604 l 307 613 l 248 622 l 240 629 l 254 637 q 332 628 307 637 l 332 628 q 376 567 376 613 l 376 567 q 348 447 376 524 l 348 447 q 321 329 321 371 l 321 329 q 349 281 321 294 q 421 263 377 268 l 421 263 l 408 246 q 283 193 321 244 l 283 193 q 235 66 261 162 l 235 66 q 181 -61 213 -23 l 181 -61 q 26 -120 131 -120 z"},"[":{"ha":585,"x_min":23,"x_max":573,"o":"m 156 -17 l 156 -17 q 63 -8 102 -17 q 23 19 23 1 l 23 19 q 152 386 23 139 l 152 386 q 380 701 283 634 l 380 701 q 423 714 393 709 q 472 718 452 718 l 472 718 q 573 697 573 718 l 573 697 q 573 694 573 697 q 572 684 573 691 l 572 684 q 566 683 569 683 q 558 683 562 683 l 558 683 q 522 685 546 683 q 486 687 498 687 l 486 687 q 431 680 442 687 l 431 680 q 370 620 410 667 l 370 620 q 287 506 330 573 q 196 351 243 439 l 196 351 q 87 60 87 151 l 87 60 q 164 4 87 4 l 164 4 q 202 7 177 4 q 239 9 227 9 l 239 9 q 268 -3 268 9 l 268 -3 q 156 -17 268 -17 z"},"]":{"ha":556,"x_min":23,"x_max":573,"o":"m 124 -17 l 124 -17 q 23 4 23 -17 l 23 4 q 23 7 23 4 q 24 17 23 10 l 24 17 q 31 18 27 18 q 38 18 34 18 l 38 18 q 74 16 50 18 q 110 14 98 14 l 110 14 q 165 21 154 14 l 165 21 q 226 81 186 34 l 226 81 q 310 195 266 128 q 400 350 353 262 l 400 350 q 509 641 509 550 l 509 641 q 432 697 509 697 l 432 697 q 394 695 419 697 q 357 692 369 692 l 357 692 q 328 704 328 692 l 328 704 q 440 718 328 718 l 440 718 q 534 709 494 718 q 573 682 573 700 l 573 682 q 444 315 573 563 l 444 315 q 216 0 314 68 l 216 0 q 174 -12 203 -8 q 124 -17 144 -17 z"},"c":{"ha":283,"x_min":-8,"x_max":340,"o":"m 76 -13 l 76 -13 q 18 8 44 -13 q -8 62 -8 28 l -8 62 q 79 224 -8 133 l 79 224 q 238 316 168 316 l 238 316 q 276 304 262 316 q 290 273 290 291 l 290 273 q 278 227 290 248 l 278 227 q 238 201 264 201 l 238 201 q 212 217 212 201 l 212 217 q 225 250 212 228 l 225 250 q 239 274 239 273 l 239 274 q 236 276 239 276 l 236 276 q 158 235 208 273 l 158 235 q 120 203 136 218 q 93 174 103 188 l 93 174 l 54 117 q 42 86 48 108 q 35 53 35 64 l 35 53 q 49 20 35 33 q 83 7 62 7 l 83 7 q 215 72 133 7 l 215 72 q 321 177 281 124 l 321 177 q 333 183 326 183 l 333 183 q 340 179 340 183 l 340 179 q 335 169 340 176 l 335 169 q 206 43 280 96 l 206 43 q 76 -13 127 -13 z"},":":{"ha":226,"x_min":88,"x_max":208,"o":"m 170 193 l 170 193 q 141 204 153 193 q 128 228 128 214 l 128 228 q 166 257 128 257 l 166 257 q 194 247 180 257 q 208 223 208 237 l 208 223 q 195 202 208 211 q 170 193 182 193 z m 130 -1 l 130 -1 q 101 10 113 -1 q 88 34 88 20 l 88 34 q 126 63 88 63 l 126 63 q 154 54 140 63 q 168 29 168 44 l 168 29 q 155 8 168 17 q 130 -1 142 -1 z"},",":{"ha":194,"x_min":81,"x_max":168,"o":"m 85 -80 l 85 -80 q 81 -77 81 -79 l 81 -77 q 104 -50 81 -76 l 104 -50 q 124 -4 127 -24 l 124 -4 q 110 16 123 7 q 97 33 97 24 l 97 33 q 126 63 97 63 l 126 63 q 154 54 140 63 q 168 29 168 44 l 168 29 q 133 -51 168 -13 l 133 -51 q 85 -80 101 -84 z"},"d":{"ha":467,"x_min":-12,"x_max":516,"o":"m 67 -5 l 67 -5 q 16 12 37 -5 q -8 52 -5 28 l -8 52 q 2 117 -12 84 q 39 179 15 149 q 89 235 62 209 l 89 235 q 280 341 195 341 l 280 341 q 319 326 309 341 l 319 326 q 328 303 323 321 l 328 303 q 484 485 440 485 l 484 485 q 505 480 494 485 q 516 467 516 475 l 516 467 q 511 454 516 462 l 511 454 q 451 381 481 417 q 392 307 421 344 l 392 307 q 313 199 343 245 q 270 121 283 153 l 270 121 q 263 97 266 111 q 259 67 259 82 l 259 67 q 267 34 259 48 q 296 20 275 20 l 296 20 q 377 52 329 20 q 489 157 425 84 l 489 157 q 497 164 493 161 q 504 168 500 167 l 504 168 q 513 164 513 170 l 513 164 q 507 153 513 161 l 507 153 q 438 80 476 116 q 361 21 400 44 q 287 -3 321 -3 l 287 -3 q 239 20 253 -3 q 225 72 225 43 l 225 72 q 236 127 225 102 l 236 127 l 155 46 q 106 7 128 19 q 67 -5 83 -5 z m 58 17 l 58 17 q 201 135 101 17 l 201 135 q 236 180 206 141 q 321 292 266 218 l 321 292 q 297 304 314 304 l 297 304 q 131 206 235 304 l 131 206 q 33 53 33 115 l 33 53 q 58 17 33 17 z"},"$":{"ha":537,"x_min":8,"x_max":531,"o":"m 50 3 l 50 3 q 35 28 35 3 l 35 28 q 54 115 35 62 l 54 115 q 73 154 59 129 q 109 213 87 179 l 109 213 q 51 239 73 222 l 51 239 q 20 276 32 254 q 8 320 8 298 l 8 320 q 24 366 8 345 q 63 387 39 387 l 63 387 q 69 385 69 387 l 69 385 q 57 374 69 382 l 57 374 l 40 362 q 29 331 29 351 l 29 331 q 57 265 29 294 l 57 265 q 118 227 83 237 l 118 227 q 178 314 144 267 q 251 416 211 361 l 251 416 q 184 483 184 434 l 184 483 q 229 555 184 519 l 229 555 q 401 613 298 609 l 401 613 q 510 734 498 734 l 510 734 q 527 727 520 734 l 527 727 q 531 717 531 723 l 531 717 q 523 700 531 710 l 523 700 q 448 610 490 663 l 448 610 q 531 545 531 598 l 531 545 q 492 493 531 508 l 492 493 q 455 484 470 484 l 455 484 q 439 488 444 484 l 439 488 q 438 492 438 489 l 438 492 q 453 498 438 497 l 453 498 q 466 499 458 498 q 481 502 473 500 l 481 502 q 504 536 504 513 l 504 536 q 433 592 504 583 l 433 592 q 373 517 403 555 q 313 440 343 479 l 313 440 q 382 427 349 435 q 434 404 414 419 q 454 362 454 388 l 454 362 q 420 291 454 328 l 420 291 q 317 225 377 244 q 185 206 256 206 l 185 206 q 164 207 174 206 q 143 208 153 207 l 143 208 q 92 127 112 161 q 64 71 72 92 l 64 71 q 58 42 58 55 l 58 42 q 69 20 58 24 l 69 20 q 68 12 73 17 l 68 12 q 50 3 61 3 z m 275 449 l 275 449 q 332 523 304 487 q 385 593 359 559 l 385 593 q 253 544 299 585 l 253 544 q 223 494 223 516 l 223 494 q 275 449 223 465 z m 184 220 l 184 220 q 269 231 227 220 q 346 263 311 241 q 399 317 380 284 l 399 317 q 410 349 410 336 l 410 349 q 393 378 410 367 q 347 396 375 389 q 288 408 319 403 l 288 408 q 215 309 248 355 q 153 221 181 262 l 153 221 q 169 220 161 220 q 184 220 176 220 z"},"e":{"ha":257,"x_min":-33,"x_max":318,"o":"m 51 -13 l 51 -13 q -7 8 19 -13 q -33 62 -33 28 l -33 62 q 54 224 -33 133 l 54 224 q 213 316 143 316 l 213 316 q 251 304 236 316 q 265 273 265 291 l 265 273 q 176 163 265 217 l 176 163 q 43 115 97 115 l 43 115 q 29 117 35 115 l 29 117 q 14 60 14 90 l 14 60 q 63 8 14 8 l 63 8 q 192 75 113 8 l 192 75 q 296 179 253 124 l 296 179 q 312 191 305 191 l 312 191 q 318 185 318 191 l 318 185 q 310 168 318 179 l 310 168 q 250 100 282 131 q 181 43 218 69 l 181 43 q 51 -13 104 -13 z m 57 137 l 57 137 q 156 175 95 137 l 156 175 q 196 207 176 189 q 228 242 215 224 q 240 274 240 260 l 240 274 q 219 287 240 287 l 219 287 q 135 242 189 287 l 135 242 q 85 194 109 220 q 44 139 61 168 l 44 139 q 57 137 50 137 z"},"=":{"ha":406,"x_min":19,"x_max":436,"o":"m 351 351 l 240 333 q 205 332 230 331 q 140 334 180 332 l 140 334 q 52 355 52 340 l 52 355 q 61 373 52 367 q 77 379 70 379 l 77 379 l 117 380 q 159 381 139 381 q 195 381 178 381 l 195 381 q 243 381 221 381 q 281 380 264 381 l 281 380 q 369 380 332 379 q 429 382 406 381 l 429 382 q 351 351 436 366 l 351 351 z m 207 213 l 207 213 q 107 214 186 208 l 107 214 q 19 235 19 220 l 19 235 q 28 253 19 246 q 44 259 37 259 l 44 259 q 53 259 43 259 q 83 260 63 259 l 83 260 l 163 260 q 248 260 214 261 l 248 260 q 336 260 299 259 q 396 262 373 260 l 396 262 q 319 230 404 245 l 319 230 q 263 222 291 226 q 207 213 235 218 z"},"!":{"ha":259,"x_min":77,"x_max":379,"o":"m 139 117 l 139 117 q 135 136 132 117 l 135 136 q 228 326 147 205 l 228 326 q 338 448 309 448 l 338 448 q 362 444 350 448 l 362 444 q 379 431 379 439 l 379 431 q 375 424 379 428 l 375 424 q 252 274 333 381 l 252 274 q 189 188 212 221 q 160 140 166 154 l 160 140 q 139 117 149 117 z m 119 2 l 119 2 q 90 13 102 2 q 77 38 77 24 l 77 38 q 116 66 77 66 l 116 66 q 144 57 130 66 q 157 33 157 47 l 157 33 q 144 12 157 21 q 119 2 131 2 z"},"f":{"ha":242,"x_min":-243,"x_max":408,"o":"m -170 -205 l -170 -205 q -221 -180 -200 -205 q -243 -126 -242 -155 l -243 -126 q -234 -114 -240 -114 l -234 -114 q -227 -129 -228 -114 q -211 -160 -226 -145 l -211 -160 q -181 -175 -196 -175 l -181 -175 q -26 -70 -96 -175 l -26 -70 q 21 12 -7 -42 q 83 146 49 65 l 83 146 l 137 276 q 37 300 37 277 l 37 300 q 47 318 37 311 q 63 324 57 324 l 63 324 q 63 324 63 324 l 63 324 l 63 324 q 88 324 64 324 q 157 322 112 323 l 157 322 q 337 540 255 540 l 337 540 q 400 510 369 540 l 400 510 q 408 489 408 502 l 408 489 q 390 458 408 458 l 390 458 q 380 466 385 458 l 380 466 q 367 478 376 473 q 350 482 358 482 l 350 482 q 298 460 320 482 q 256 401 275 437 q 214 322 236 365 l 214 322 l 226 322 q 371 325 335 322 l 371 325 q 375 321 375 324 l 375 321 q 304 299 375 313 l 304 299 q 249 290 276 295 q 194 280 222 285 l 194 280 q 162 214 181 252 q 119 128 143 175 l 119 128 q 42 -12 72 40 q 0 -81 12 -64 l 0 -81 q -170 -205 -87 -205 z"},"g":{"ha":370,"x_min":-84,"x_max":378,"o":"m -11 -205 l -11 -205 q -62 -180 -41 -205 q -84 -126 -83 -155 l -84 -126 q -75 -114 -81 -114 l -75 -114 q -68 -129 -69 -114 q -52 -160 -67 -145 l -52 -160 q -23 -175 -37 -175 l -23 -175 q 99 -100 35 -175 l 99 -100 q 147 -36 122 -73 q 194 46 171 0 l 194 46 l 244 145 l 169 69 q 109 17 134 34 q 69 0 83 0 l 69 0 q 21 18 45 0 q -6 58 -3 35 l -6 58 q 91 241 -16 135 l 91 241 q 282 346 198 346 l 282 346 q 318 335 305 346 l 318 335 q 329 317 325 329 q 334 305 332 305 l 334 305 q 341 307 338 305 q 348 308 344 308 l 348 308 q 370 299 361 308 q 375 281 378 290 l 375 281 q 346 227 374 272 l 346 227 q 305 155 328 197 q 257 67 282 112 q 207 -18 231 21 q 164 -83 183 -58 l 164 -83 q -11 -205 72 -205 z m 60 23 l 60 23 q 218 150 118 23 l 218 150 l 324 296 q 299 310 318 310 l 299 310 q 133 212 237 310 l 133 212 q 36 47 25 110 l 36 47 q 60 23 41 23 z"},"`":{"ha":221,"x_min":37,"x_max":173,"o":"m 166 300 l 166 300 q 109 331 161 300 l 109 331 q 67 357 83 347 q 46 371 51 367 l 46 371 q 37 389 37 377 l 37 389 q 47 402 37 402 l 47 402 q 64 394 53 402 l 64 394 q 110 360 84 380 q 169 312 136 339 l 169 312 q 173 305 173 309 l 173 305 q 166 300 173 300 z"},">":{"ha":318,"x_min":85,"x_max":229,"o":"m 91 129 l 91 129 q 85 135 85 129 l 85 135 q 184 288 85 150 l 184 288 q 86 422 86 413 l 86 422 q 97 435 86 435 l 97 435 l 105 431 q 153 381 122 408 q 226 321 183 353 l 226 321 q 229 315 229 320 l 229 315 q 177 230 229 301 l 177 230 q 144 186 161 208 q 110 140 127 163 l 110 140 q 91 129 102 129 z"},"h":{"ha":376,"x_min":-56,"x_max":420,"o":"m -27 -5 l -27 -5 q -56 12 -56 -5 l -56 12 q -44 44 -56 22 l -44 44 q 39 190 2 126 q 103 297 75 253 l 103 297 q 271 504 222 488 l 271 504 q 274 505 273 504 q 276 505 275 505 l 276 505 q 293 484 289 505 l 293 484 q 189 332 290 463 l 189 332 q 107 222 136 265 q 70 158 77 178 l 70 158 q 141 209 103 182 q 215 261 179 236 q 280 301 251 285 q 325 318 309 316 l 325 318 q 330 319 327 318 q 334 319 333 319 l 334 319 q 362 293 362 319 l 362 293 q 344 262 362 286 q 289 188 326 238 l 289 188 q 223 56 223 100 l 223 56 q 240 33 223 33 l 240 33 q 282 49 258 34 q 329 86 305 64 q 373 130 353 108 q 402 163 392 151 l 402 163 q 416 172 411 172 l 416 172 q 420 168 420 172 l 420 168 q 412 149 420 160 l 412 149 q 377 110 400 134 q 326 62 353 86 q 274 21 298 37 q 237 4 249 4 l 237 4 q 178 73 178 4 l 178 73 q 214 175 178 112 l 214 175 q 243 223 228 199 q 273 271 258 247 l 273 271 q 41 82 145 207 l 41 82 q 14 44 28 64 q -11 9 0 23 q -27 -5 -22 -5 z"},"-":{"ha":297,"x_min":19,"x_max":293,"o":"m 95 213 l 95 213 q 76 212 87 211 q 51 214 65 212 l 51 214 q 19 235 19 220 l 19 235 q 28 253 19 246 q 44 259 37 259 l 44 259 q 48 259 45 259 q 54 260 50 259 l 54 260 l 80 260 q 136 260 102 261 l 136 260 q 225 260 187 259 q 285 262 262 260 l 285 262 q 207 230 293 245 l 207 230 q 151 222 179 226 q 95 213 123 218 z"},"i":{"ha":226,"x_min":-15,"x_max":269,"o":"m 221 344 l 221 344 q 192 355 204 344 q 179 380 179 366 l 179 380 q 217 408 179 408 l 217 408 q 245 399 231 408 q 259 375 259 389 l 259 375 q 246 354 259 363 q 221 344 233 344 z m 36 -11 l 36 -11 q 0 4 14 -11 q -15 55 -15 18 l -15 55 q -5 104 -15 76 q 19 159 4 131 q 47 209 33 187 l 47 209 q 139 301 103 300 l 139 301 q 161 294 148 301 q 174 277 174 286 l 174 277 q 98 179 174 277 l 98 179 q 23 41 23 82 l 23 41 q 48 9 23 9 l 48 9 q 90 23 64 9 q 143 57 115 36 q 197 102 171 78 q 238 146 222 126 l 238 146 q 256 164 248 159 q 265 169 263 169 l 265 169 q 269 163 269 169 l 269 163 q 258 143 269 158 q 226 108 246 128 l 226 108 q 173 56 202 84 q 110 9 144 28 q 36 -11 76 -11 z"},"j":{"ha":201,"x_min":-265,"x_max":246,"o":"m 208 346 l 208 346 q 179 357 191 346 q 166 381 166 367 l 166 381 q 204 410 166 410 l 204 410 q 232 400 218 410 q 246 376 246 390 l 246 376 q 233 355 246 364 q 208 346 220 346 z m -184 -205 l -184 -205 q -239 -186 -214 -205 l -239 -186 q -265 -146 -265 -166 l -265 -146 q -256 -127 -265 -127 l -256 -127 q -236 -152 -255 -127 l -236 -152 q -190 -178 -216 -178 l -190 -178 q -8 3 -110 -178 l -8 3 q 45 105 23 59 q 78 186 66 150 l 78 186 q 52 160 69 176 q 20 131 35 143 q -3 118 4 118 l -3 118 q -6 121 -6 118 l -6 121 q 7 142 -6 130 l 7 142 q 52 195 26 158 l 52 195 q 85 240 81 236 l 85 240 l 118 275 q 158 294 138 294 l 158 294 q 185 272 185 294 l 185 272 q 150 206 185 268 l 150 206 l 106 130 q -13 -75 29 -17 l -13 -75 q -184 -205 -104 -205 z"},"k":{"ha":394,"x_min":-28,"x_max":438,"o":"m 205 -12 l 205 -12 q 147 7 172 -12 q 103 55 121 26 q 71 113 84 84 l 71 113 q 57 90 64 104 q 39 57 49 76 l 39 57 l 8 -5 q -28 33 -28 9 l -28 33 q 103 272 -28 76 l 103 272 q 278 496 230 462 l 278 496 q 294 499 283 499 l 294 499 q 325 483 325 499 l 325 483 q 311 462 325 480 q 276 417 297 443 q 234 365 255 391 q 196 319 212 338 q 178 294 180 299 l 178 294 q 323 341 269 341 l 323 341 q 362 329 344 341 q 389 300 379 317 q 397 267 399 283 l 397 267 q 317 173 389 210 l 317 173 q 211 142 259 142 l 211 142 q 139 155 159 142 l 139 155 q 130 153 133 156 q 128 142 126 149 l 128 142 q 221 18 156 18 l 221 18 q 307 55 253 18 q 420 163 360 92 l 420 163 q 433 170 427 170 l 433 170 q 438 164 438 170 l 438 164 q 431 149 438 159 l 431 149 q 364 77 402 114 q 284 14 325 39 q 205 -12 243 -12 z m 147 168 l 147 168 q 265 205 192 168 l 265 205 q 349 294 349 247 l 349 294 q 340 310 349 302 q 321 318 331 318 l 321 318 q 195 276 267 318 l 195 276 q 99 171 116 228 l 99 171 q 128 170 110 171 q 147 168 145 168 z"},"l":{"ha":243,"x_min":-3,"x_max":305,"o":"m 76 -2 l 76 -2 q 22 13 47 -2 q -3 61 -3 27 l -3 61 q 31 173 -3 108 q 107 308 64 238 l 107 308 q 273 498 224 498 l 273 498 q 294 491 283 498 q 305 474 304 483 l 305 474 l 235 380 q 161 279 194 325 q 104 195 128 232 l 104 195 q 77 152 92 176 q 51 103 62 128 q 39 51 39 77 l 39 51 q 46 30 39 39 q 71 20 53 20 l 71 20 q 155 55 103 20 q 258 150 207 89 l 258 150 q 269 161 263 156 q 279 166 275 166 l 279 166 q 284 160 284 166 l 284 160 q 278 149 284 157 q 267 135 271 140 l 267 135 l 243 108 q 196 60 223 86 q 138 16 168 34 q 76 -2 107 -2 z"},"<":{"ha":318,"x_min":85,"x_max":229,"o":"m 217 136 l 217 136 l 209 140 q 88 250 175 188 l 88 250 q 85 256 85 252 l 85 256 q 137 341 85 270 l 137 341 l 203 431 q 222 442 211 442 l 222 442 q 229 436 229 442 l 229 436 q 130 283 229 421 l 130 283 q 227 149 227 159 l 227 149 q 217 136 227 136 z"},"m":{"ha":631,"x_min":-37,"x_max":681,"o":"m 236 -2 l 236 -2 q 212 25 212 -2 l 212 25 q 257 151 223 81 l 257 151 q 290 218 273 185 q 322 285 306 251 l 322 285 q 248 230 285 260 q 176 161 211 199 l 176 161 q 81 48 135 117 l 81 48 q 36 -1 42 -1 l 36 -1 q 13 12 22 -1 q 4 34 4 25 l 4 34 q 27 101 4 47 l 27 101 q 42 135 34 118 q 56 167 49 151 l 56 167 l -4 104 q -16 92 -6 102 q -32 82 -26 82 l -32 82 q -37 89 -37 82 l -37 89 q -35 95 -37 91 q -29 103 -34 98 l -29 103 q 2 135 -14 118 q 35 174 18 152 l 35 174 q 73 225 48 191 q 133 309 97 258 l 133 309 q 164 324 144 324 l 164 324 q 184 305 184 324 l 184 305 q 133 212 184 298 l 133 212 q 92 137 107 166 q 72 94 76 108 l 72 94 q 125 148 94 118 q 195 215 155 178 l 195 215 q 357 329 318 329 l 357 329 q 379 322 368 329 q 389 304 389 315 l 389 304 q 350 231 389 299 l 350 231 q 308 149 312 162 l 308 149 q 419 243 419 242 l 419 243 q 554 316 513 316 l 554 316 q 577 309 566 316 q 587 291 587 301 l 587 291 q 523 207 587 289 l 523 207 q 449 71 457 124 l 449 71 q 486 35 445 35 l 486 35 q 556 67 511 35 q 650 155 601 99 l 650 155 q 663 169 656 162 q 675 175 670 175 l 675 175 q 681 170 681 175 l 681 170 q 672 154 681 163 l 672 154 q 611 90 646 123 q 540 35 575 57 q 478 12 505 12 l 478 12 q 410 75 410 12 l 410 75 q 422 127 410 97 q 446 180 434 156 l 446 180 q 509 279 475 236 l 509 279 q 443 237 477 263 q 371 176 408 211 l 371 176 q 253 6 285 92 l 253 6 q 236 -2 248 -2 z"},"n":{"ha":403,"x_min":-37,"x_max":445,"o":"m 255 -2 l 255 -2 q 217 14 228 -2 q 206 52 206 29 l 206 52 q 246 176 206 110 l 246 176 l 310 280 q 175 155 242 230 l 175 155 q 135 108 157 135 q 85 46 112 81 l 85 46 q 42 -1 49 -1 l 42 -1 q 19 12 28 -1 q 10 34 10 24 l 10 34 q 15 64 10 42 q 27 101 20 85 l 27 101 q 42 135 34 118 q 56 167 49 151 l 56 167 l -4 104 q -16 92 -6 102 q -32 82 -26 82 l -32 82 q -37 89 -37 82 l -37 89 q -35 95 -37 91 q -29 103 -34 98 l -29 103 q 2 135 -14 118 q 35 174 18 152 l 35 174 q 62 208 44 185 q 102 256 80 230 q 142 304 123 282 l 142 304 q 153 314 147 311 q 161 316 159 316 l 161 316 q 188 295 188 316 l 188 295 q 185 283 188 289 l 185 283 q 77 94 95 159 l 77 94 q 264 269 193 210 q 364 327 334 327 l 364 327 q 389 322 380 327 q 397 303 397 317 l 397 303 q 396 295 397 298 l 396 295 q 355 239 393 288 l 355 239 q 315 188 332 211 q 286 148 297 165 l 286 148 q 259 96 268 120 q 250 54 250 71 l 250 54 q 252 37 250 47 q 264 27 254 27 l 264 27 q 336 67 287 27 l 336 67 q 379 108 359 87 q 417 148 399 128 l 417 148 q 430 164 421 152 q 441 175 439 175 l 441 175 q 445 167 445 175 l 445 167 q 441 154 445 163 q 431 139 436 144 l 431 139 q 399 103 420 126 q 351 56 377 80 q 299 15 324 32 q 255 -2 274 -2 z"},"#":{"ha":791,"x_min":-10,"x_max":778,"o":"m 147 38 l 147 38 q 137 44 140 38 q 134 58 134 50 l 134 58 q 136 76 134 67 q 140 92 138 85 l 140 92 q 165 151 153 121 q 189 212 177 181 l 189 212 l 84 211 q -10 237 -10 211 l -10 237 q 41 257 -10 254 l 41 257 l 207 258 q 270 432 233 326 l 270 432 l 172 431 q 78 457 78 430 l 78 457 q 128 477 78 472 l 128 477 q 196 477 156 477 q 286 475 235 476 l 286 475 l 332 605 q 356 649 347 646 l 356 649 l 357 649 q 365 638 363 649 l 365 638 q 366 632 366 636 q 366 622 366 627 l 366 622 q 350 524 364 563 l 350 524 l 332 475 q 439 474 391 474 q 523 473 486 473 l 523 473 q 551 541 537 508 q 578 605 564 574 l 578 605 q 605 647 596 646 l 605 647 q 612 641 609 648 q 615 621 615 633 l 615 621 q 596 524 612 566 l 596 524 l 577 474 q 655 476 617 475 q 727 478 692 477 l 727 478 q 778 470 778 480 l 778 470 q 755 455 778 463 l 755 455 q 656 433 699 433 l 656 433 l 562 433 l 496 258 l 640 259 q 690 248 690 259 l 690 248 q 668 233 690 240 l 668 233 q 569 214 614 214 l 569 214 l 479 213 l 444 117 q 392 38 416 38 l 392 38 q 380 57 380 38 l 380 57 q 382 75 380 65 q 385 92 384 84 l 385 92 q 407 149 396 118 q 430 213 418 179 l 430 213 l 233 212 l 198 117 q 147 38 170 38 z m 316 432 l 250 258 l 446 258 q 472 331 456 287 q 508 433 487 375 l 508 433 l 316 432 z"},"o":{"ha":281,"x_min":-10,"x_max":339,"o":"m 59 -2 l 43 -2 q 4 22 18 -2 q -10 67 -10 45 l -10 67 q 77 235 -10 127 l 77 235 q 219 344 165 344 l 219 344 q 270 290 270 344 l 270 290 q 269 273 270 282 q 265 254 267 264 l 265 254 q 275 251 267 251 l 275 251 q 339 270 302 251 l 339 270 q 260 221 338 253 l 260 221 q 194 95 271 188 l 194 95 q 59 -2 115 -2 l 59 -2 z m 61 28 l 61 28 q 171 107 104 28 l 171 107 q 236 218 236 184 l 236 218 q 196 264 220 227 l 196 264 q 98 182 162 264 l 98 182 q 37 59 35 102 l 37 59 q 61 28 38 28 z"},"p":{"ha":377,"x_min":-100,"x_max":377,"o":"m -58 -189 l -58 -189 q -100 -102 -100 -166 l -100 -102 q 13 134 -100 -33 l 13 134 q 163 308 121 295 l 163 308 q 170 310 167 309 q 176 310 173 310 l 176 310 q 193 273 193 310 l 193 273 q 218 287 200 280 q 254 297 235 293 q 281 302 272 301 l 281 302 q 350 283 322 304 q 377 226 377 261 l 377 226 q 280 69 377 145 l 280 69 q 124 0 192 0 l 124 0 q 62 5 79 0 l 62 5 q 13 42 38 12 l 13 42 q -11 12 2 33 q -35 -35 -24 -10 q -54 -86 -47 -61 q -62 -128 -62 -111 l -62 -128 q -55 -156 -62 -145 q -43 -178 -49 -168 l -43 -178 q -42 -179 -43 -179 q -42 -180 -42 -180 l -42 -180 q -47 -188 -42 -185 q -58 -189 -53 -192 z m 111 28 l 111 28 q 240 85 167 28 l 240 85 q 326 236 326 153 l 326 236 q 279 274 326 274 l 279 274 q 199 255 236 274 l 199 255 q 167 229 189 251 q 107 169 144 207 l 107 169 q 28 64 28 87 l 28 64 q 61 35 28 46 l 61 35 q 111 28 83 28 z"},"(":{"ha":375,"x_min":-2,"x_max":635,"o":"m 191 -34 l 191 -34 q 84 6 127 -28 q 20 93 41 40 q -2 207 -2 145 l -2 207 q 36 376 -2 291 l 36 376 q 132 516 69 449 q 276 635 195 582 q 444 720 356 687 q 615 760 531 753 l 615 760 q 635 748 635 757 l 635 748 q 610 737 635 738 l 610 737 q 409 676 504 727 q 238 547 314 625 q 112 373 162 468 l 112 373 q 68 264 84 318 q 52 162 52 209 l 52 162 q 88 45 52 92 q 201 -9 124 -3 l 201 -9 q 224 -20 224 -11 l 224 -20 q 191 -34 224 -37 z"},")":{"ha":651,"x_min":9,"x_max":649,"o":"m 30 -35 l 30 -35 q 9 -23 9 -32 l 9 -23 q 34 -12 9 -13 l 34 -12 q 234 49 139 -2 q 406 179 329 100 q 533 351 483 257 l 533 351 q 593 561 593 465 l 593 561 q 555 682 593 635 q 443 734 517 728 l 443 734 q 421 745 421 735 l 421 745 q 453 759 421 762 l 453 759 q 555 721 511 754 q 624 635 599 687 q 649 520 649 583 l 649 520 q 608 349 649 440 l 608 349 q 512 210 575 276 q 369 91 449 144 q 201 5 288 38 q 30 -35 113 -28 z"},"%":{"ha":701,"x_min":95,"x_max":674,"o":"m 133 -115 l 133 -115 q 116 -86 116 -115 l 116 -86 q 138 11 116 -49 l 138 11 q 341 325 163 81 l 341 325 q 490 523 423 438 q 606 665 556 608 l 606 665 q 486 620 557 641 l 486 620 q 418 604 448 609 q 365 597 387 598 l 365 597 q 366 588 366 594 l 366 588 q 299 471 366 553 l 299 471 q 164 374 220 374 l 164 374 l 148 374 q 107 401 122 374 l 107 401 q 95 443 95 421 l 95 443 q 182 611 95 503 l 182 611 q 324 720 270 720 l 324 720 q 375 666 375 720 l 375 666 q 374 649 375 658 q 370 630 372 640 l 370 630 q 379 628 372 628 l 379 628 q 411 631 389 628 l 411 631 q 645 705 512 643 l 645 705 q 650 707 649 707 l 650 707 q 669 699 661 707 l 669 699 q 674 688 674 694 l 674 688 q 665 669 674 680 l 665 669 q 523 498 597 590 q 369 298 449 405 l 369 298 q 149 -39 181 45 l 149 -39 q 143 -71 143 -57 l 143 -71 q 154 -96 143 -90 l 154 -96 q 154 -105 159 -97 l 154 -105 q 133 -115 147 -115 z m 166 404 l 166 404 q 276 483 209 404 l 276 483 q 341 594 341 560 l 341 594 q 301 640 325 603 l 301 640 q 203 558 267 640 l 203 558 q 142 437 142 479 l 142 437 q 166 404 142 404 z m 364 -82 l 348 -82 q 309 -58 323 -82 q 295 -13 295 -35 l 295 -13 q 382 155 295 47 l 382 155 q 524 264 470 264 l 524 264 q 575 210 575 264 l 575 210 q 574 193 575 202 q 570 174 572 184 l 570 174 q 580 171 571 172 q 588 163 588 170 l 588 163 q 565 141 588 150 l 565 141 q 566 132 566 138 l 566 132 q 499 15 566 97 l 499 15 q 364 -82 420 -82 l 364 -82 z m 366 -52 l 366 -52 q 476 27 409 -52 l 476 27 q 541 138 541 104 l 541 138 q 501 184 525 147 l 501 184 q 403 102 467 184 l 403 102 q 342 -19 342 23 l 342 -19 q 366 -52 342 -52 z"},".":{"ha":226,"x_min":88,"x_max":168,"o":"m 130 -1 l 130 -1 q 101 10 113 -1 q 88 34 88 20 l 88 34 q 126 63 88 63 l 126 63 q 154 54 140 63 q 168 29 168 44 l 168 29 q 155 8 168 17 q 130 -1 142 -1 z"},"+":{"ha":406,"x_min":34,"x_max":426,"o":"m 147 71 l 147 71 q 135 83 138 73 q 136 102 132 93 l 136 102 l 187 216 q 39 239 34 216 l 39 239 q 51 257 41 250 q 68 263 61 263 l 68 263 q 80 263 68 263 q 116 264 92 263 l 116 264 l 209 264 q 218 283 214 274 q 225 298 222 291 l 225 298 q 265 383 249 347 q 289 441 281 419 l 289 441 q 295 406 302 442 l 295 406 q 284 361 294 396 q 255 264 274 325 l 255 264 l 272 264 q 362 264 325 263 q 421 266 399 265 l 421 266 q 354 237 426 251 l 354 237 q 298 229 326 233 q 240 220 269 225 l 240 220 q 217 171 229 195 q 191 125 204 147 l 191 125 q 147 71 158 66 z"},"q":{"ha":332,"x_min":-28,"x_max":341,"o":"m 104 -242 l 104 -242 q 52 -165 52 -242 l 52 -165 q 77 -59 52 -118 l 77 -59 l 123 48 q 21 4 58 4 l 21 4 q -28 58 -28 4 l -28 58 q 25 162 -28 100 l 25 162 q 118 240 72 215 l 118 240 q 297 301 228 301 l 297 301 q 324 284 319 301 l 324 284 l 324 252 l 336 243 q 341 236 341 238 l 341 236 q 338 228 341 233 l 338 228 l 259 153 q 196 81 222 116 q 156 12 170 45 l 156 12 q 188 14 162 14 l 188 14 q 231 -9 216 14 q 246 -56 246 -32 l 246 -56 q 204 -169 246 -104 l 204 -169 q 104 -242 158 -242 z m 26 24 l 26 24 q 160 111 76 24 l 160 111 l 286 245 q 273 251 285 251 l 273 251 q 125 188 223 251 l 125 188 q 66 143 94 168 q 20 92 38 118 q 2 42 2 66 l 2 42 q 26 24 2 24 z m 113 -222 l 113 -222 q 181 -153 150 -222 l 181 -153 q 200 -102 193 -125 q 206 -64 206 -80 l 206 -64 q 190 -19 206 -29 l 190 -19 q 146 -9 178 -10 l 146 -9 q 106 -91 127 -39 l 106 -91 q 83 -179 83 -151 l 83 -179 q 92 -206 83 -191 q 113 -222 100 -222 z"},"?":{"ha":401,"x_min":80,"x_max":436,"o":"m 151 113 l 151 113 q 144 126 144 113 l 144 126 q 146 136 144 130 l 146 136 q 234 229 172 189 l 234 229 q 309 279 281 260 q 344 304 336 297 l 344 304 q 387 376 387 343 l 387 376 q 350 428 387 408 q 262 447 313 447 l 262 447 q 161 423 203 447 l 161 423 q 106 345 112 395 l 106 345 q 117 321 104 332 q 147 309 129 309 l 147 309 q 205 339 177 309 l 205 339 q 210 342 208 342 l 210 342 q 214 336 214 342 l 214 336 q 209 324 214 329 l 209 324 q 138 290 178 290 l 138 290 q 97 306 113 290 q 82 347 80 322 l 82 347 q 153 455 88 414 l 153 455 q 270 488 207 488 l 270 488 q 436 393 436 488 l 436 393 q 382 290 436 332 l 382 290 q 262 218 370 281 l 262 218 q 166 129 192 178 l 166 129 q 151 113 157 113 z m 128 -5 l 128 -5 q 99 6 111 -5 q 87 30 87 16 l 87 30 q 125 58 87 58 l 125 58 q 153 49 139 58 q 167 25 167 39 l 167 25 q 154 4 167 13 q 128 -5 140 -5 z"},"\"":{"ha":206,"x_min":17,"x_max":206,"o":"m 21 329 l 21 329 q 17 332 17 330 l 17 332 q 40 358 17 332 l 40 358 q 61 405 64 384 l 61 405 q 47 425 60 416 q 34 442 34 433 l 34 442 q 63 472 34 472 l 63 472 q 91 463 77 472 q 105 438 105 453 l 105 438 q 69 358 105 396 l 69 358 q 21 329 37 325 z m 123 329 l 123 329 q 119 332 119 330 l 119 332 q 141 359 119 334 l 141 359 q 162 405 163 384 l 162 405 q 148 425 161 416 q 135 442 135 433 l 135 442 q 165 472 135 472 l 165 472 q 193 463 179 472 q 206 438 206 453 l 206 438 q 171 358 206 396 l 171 358 q 123 329 139 325 z"},"'":{"ha":130,"x_min":73,"x_max":171,"o":"m 76 269 l 76 269 q 73 273 73 271 l 73 273 q 101 312 73 277 l 101 312 q 127 369 130 349 l 127 369 q 113 389 126 380 q 100 406 100 397 l 100 406 q 129 436 100 436 l 129 436 q 157 427 143 436 q 171 403 171 417 l 171 403 q 130 310 171 360 l 130 310 q 76 269 92 265 z"},"r":{"ha":394,"x_min":-5,"x_max":435,"o":"m 204 -5 l 204 -5 q 145 18 161 -5 q 129 78 129 40 l 129 78 q 155 178 129 120 l 155 178 q 176 220 165 201 q 199 254 187 238 l 199 254 q 192 253 195 253 q 186 253 189 253 l 186 253 q 146 287 162 253 l 146 287 l 72 191 q 0 114 13 114 l 0 114 q -5 118 -5 114 l -5 118 q 0 131 -5 123 l 0 131 q 12 147 3 137 l 12 147 q 82 234 50 191 q 135 318 114 277 l 135 318 q 193 405 158 405 l 193 405 q 216 384 216 405 l 216 384 q 191 334 216 365 l 191 334 q 167 302 167 303 l 167 302 q 198 281 167 281 l 198 281 q 238 294 216 281 l 238 294 l 264 310 q 270 311 266 311 l 270 311 q 291 301 282 311 q 297 283 300 291 l 297 283 l 228 196 q 164 64 164 114 l 164 64 q 208 19 164 19 l 208 19 q 273 37 238 19 q 340 82 307 55 q 394 133 372 108 l 394 133 l 418 161 q 423 166 420 163 q 428 169 426 169 l 428 169 q 435 162 435 169 l 435 162 q 433 155 435 160 q 426 144 431 150 l 426 144 l 394 108 q 338 56 371 82 q 269 12 304 29 q 204 -5 233 -5 z"},"s":{"ha":359,"x_min":-21,"x_max":411,"o":"m 115 -2 l 115 -2 q 46 29 68 -2 q 9 115 23 60 l 9 115 q -16 97 -9 97 l -16 97 q -21 105 -21 97 l -21 105 q -16 116 -21 111 l -16 116 q 10 147 -16 116 q 96 234 35 178 l 96 234 l 222 352 q 264 390 248 377 q 286 403 279 403 l 286 403 q 318 379 318 403 l 318 379 q 305 351 318 367 l 305 351 q 291 333 295 339 q 285 325 286 326 l 285 325 q 252 214 267 294 l 252 214 q 233 117 241 155 q 220 62 225 79 l 220 62 q 303 88 262 63 q 391 170 344 113 l 391 170 q 397 176 393 172 q 405 180 401 180 l 405 180 q 411 175 411 180 l 411 175 q 408 165 411 170 q 402 156 405 160 l 402 156 q 344 96 371 119 q 287 59 317 72 q 216 36 257 45 l 216 36 l 184 15 q 153 2 171 6 q 115 -2 135 -2 z m 127 49 l 127 49 q 165 60 150 49 l 165 60 q 187 94 176 66 q 207 162 197 121 l 207 162 q 220 231 215 197 q 228 295 224 264 l 228 295 l 232 329 q 174 280 209 312 q 105 213 139 248 l 105 213 q 61 162 71 178 q 50 137 51 145 l 50 137 q 70 73 46 97 q 127 49 93 49 z"},";":{"ha":226,"x_min":81,"x_max":208,"o":"m 170 193 l 170 193 q 141 204 153 193 q 128 228 128 214 l 128 228 q 166 257 128 257 l 166 257 q 194 247 180 257 q 208 223 208 237 l 208 223 q 195 202 208 211 q 170 193 182 193 z m 85 -80 l 85 -80 q 81 -77 81 -79 l 81 -77 q 104 -50 81 -76 l 104 -50 q 124 -4 127 -24 l 124 -4 q 110 16 123 7 q 97 33 97 24 l 97 33 q 126 63 97 63 l 126 63 q 154 54 140 63 q 168 29 168 44 l 168 29 q 133 -51 168 -13 l 133 -51 q 85 -80 101 -84 z"},"/":{"ha":604,"x_min":27,"x_max":592,"o":"m 44 -124 l 44 -124 q 27 -95 27 -124 l 27 -95 q 49 2 27 -58 l 49 2 q 310 396 80 87 l 310 396 q 561 698 537 698 l 561 698 q 580 690 572 698 l 580 690 q 576 660 592 679 l 576 660 q 434 489 508 581 q 280 289 360 396 l 280 289 q 60 -48 92 36 l 60 -48 q 54 -80 54 -66 l 54 -80 q 65 -105 54 -99 l 65 -105 q 65 -114 70 -106 l 65 -114 q 44 -124 58 -124 z"},"t":{"ha":297,"x_min":-7,"x_max":408,"o":"m 62 -6 l 62 -6 q 12 10 30 -6 q -7 65 -7 25 l -7 65 q 7 124 -7 88 q 42 200 21 159 q 84 281 63 241 l 84 281 q 61 278 71 278 l 61 278 q 31 301 31 278 l 31 301 q 40 318 31 312 q 55 325 48 324 l 55 325 q 58 325 55 325 q 64 326 60 325 l 64 326 l 122 326 q 159 375 140 349 l 159 375 q 202 415 186 409 l 202 415 l 205 415 q 225 408 212 415 l 225 408 q 241 390 241 399 l 241 390 q 193 323 241 377 l 193 323 q 219 322 202 322 q 261 322 236 322 l 261 322 q 296 322 273 322 q 343 323 318 322 q 385 324 367 323 q 405 324 403 324 l 405 324 q 408 321 408 323 l 408 321 q 290 297 408 312 l 290 297 q 188 283 223 288 q 149 277 152 278 l 149 277 q 115 236 135 265 q 75 171 95 207 q 42 103 55 135 q 28 52 28 70 l 28 52 q 40 26 28 36 q 79 15 52 15 l 79 15 q 122 23 97 15 q 170 42 147 31 q 202 58 192 52 l 202 58 q 260 101 228 74 q 322 161 291 127 l 322 161 q 341 175 336 175 l 341 175 q 344 171 344 175 l 344 171 q 329 145 344 163 l 329 145 q 276 90 305 116 q 210 41 246 63 l 210 41 q 132 5 169 16 q 62 -6 94 -6 z"},"u":{"ha":425,"x_min":-19,"x_max":470,"o":"m 47 -11 l 47 -11 q 2 46 2 -11 l 2 46 q 16 99 2 68 q 54 163 29 129 l 54 163 q 36 146 54 163 q -5 103 18 129 l -5 103 q -15 99 -9 99 l -15 99 q -19 104 -19 99 l -19 104 q -10 121 -19 109 l -10 121 l 128 283 q 185 313 154 313 l 185 313 q 208 295 208 313 l 208 295 q 202 282 208 288 l 202 282 q 156 231 183 264 q 102 160 128 198 q 59 88 76 122 q 41 32 41 53 l 41 32 q 53 14 41 14 l 53 14 q 75 20 60 14 q 115 43 90 25 q 175 97 140 60 l 175 97 q 207 133 181 103 q 277 219 233 163 l 277 219 q 379 316 355 316 l 379 316 q 415 289 412 316 l 415 289 q 373 230 417 280 l 373 230 q 295 131 316 161 l 295 131 q 256 42 256 74 l 256 42 q 271 20 256 20 l 271 20 q 310 35 286 20 q 359 72 333 49 q 410 119 385 94 q 452 164 434 143 l 452 164 q 464 171 458 171 l 464 171 q 470 165 470 171 l 470 165 q 469 159 470 163 q 463 150 468 155 l 463 150 q 422 106 447 132 q 368 53 397 79 q 312 10 339 27 q 266 -7 285 -7 l 266 -7 q 226 6 243 -7 q 209 40 209 18 l 209 40 q 216 85 209 62 q 227 123 223 107 l 227 123 q 145 39 180 68 q 85 0 109 10 q 47 -11 61 -11 z"},"_":{"ha":806,"x_min":8,"x_max":793,"o":"m 25 -73 l 25 -73 q 8 -44 8 -73 l 8 -44 q 25 -25 8 -25 l 25 -25 l 765 -25 q 793 -53 790 -25 l 793 -53 l 786 -60 q 504 -61 646 -60 q 219 -67 362 -63 l 219 -67 q 187 -68 213 -67 q 126 -70 160 -69 q 64 -72 92 -71 q 25 -73 35 -73 z"},"v":{"ha":301,"x_min":-15,"x_max":343,"o":"m 33 -3 l 33 -3 q 16 3 27 -3 q -4 16 5 8 q -14 29 -13 23 l -14 29 q -3 75 -15 37 q 33 177 8 112 l 33 177 q 75 279 58 243 q 100 322 92 315 l 100 322 q 111 326 104 326 l 111 326 q 132 317 122 326 q 143 294 142 307 l 143 294 q 93 176 143 293 l 93 176 q 47 41 44 63 l 47 41 q 194 140 91 55 l 194 140 q 284 235 256 192 q 311 311 311 277 l 311 311 q 302 348 311 331 q 267 375 292 364 l 267 375 q 260 384 260 378 l 260 384 q 271 393 260 393 l 271 393 q 322 374 300 393 q 343 317 343 355 l 343 317 q 309 227 343 277 q 212 119 275 176 l 212 119 q 113 39 157 70 q 33 -3 68 8 z"},"w":{"ha":449,"x_min":-19,"x_max":448,"o":"m 26 -2 l 26 -2 q -1 9 16 -2 l -1 9 q -19 30 -19 20 l -19 30 q 40 184 -19 54 l 40 184 q 133 323 103 323 l 133 323 q 154 312 145 323 q 162 294 162 301 l 162 294 q 107 194 162 291 l 107 194 q 54 76 53 96 l 54 76 q 105 137 80 107 q 155 198 130 167 l 155 198 q 282 310 252 310 l 282 310 q 304 301 293 310 q 314 282 314 291 l 314 282 q 289 244 314 276 l 289 244 q 240 168 260 204 q 219 95 219 132 l 219 95 q 261 32 219 32 l 261 32 q 324 51 298 32 q 376 120 349 70 l 376 120 q 407 190 396 157 q 417 247 417 222 l 417 247 q 414 284 417 269 q 404 309 410 299 l 404 309 q 402 314 402 311 l 402 314 q 408 320 402 320 l 408 320 q 422 317 414 320 q 436 298 429 313 l 436 298 q 445 268 441 290 q 448 232 448 246 l 448 232 q 387 87 448 160 l 387 87 q 249 9 323 9 l 249 9 q 207 26 224 9 q 180 67 189 42 q 171 115 171 91 l 171 115 q 187 201 171 149 l 187 201 q 154 165 174 188 q 107 108 133 141 l 107 108 q 58 44 78 71 q 26 -2 37 17 z"},"x":{"ha":427,"x_min":-35,"x_max":472,"o":"m -18 -102 l -18 -102 q -30 -91 -30 -102 l -30 -91 q -28 -86 -30 -88 l -28 -86 q 173 172 65 61 l 173 172 q 175 235 174 196 q 178 326 176 273 l 178 326 q 141 293 167 324 q 80 210 115 261 l 80 210 q 17 127 46 160 q -17 91 -13 94 l -17 91 q -30 85 -24 85 l -30 85 q -35 90 -35 85 l -35 90 q -31 99 -35 94 q -15 117 -28 103 l -15 117 q 16 153 3 137 q 42 186 29 168 q 71 230 54 204 l 71 230 q 99 271 82 246 q 133 318 115 295 q 163 352 150 341 l 163 352 q 185 365 173 361 q 206 369 196 369 l 206 369 q 229 364 218 369 q 236 342 239 359 l 236 342 q 232 311 236 341 q 223 221 227 280 l 223 221 q 299 289 242 239 q 444 414 355 338 l 444 414 q 449 416 446 416 l 449 416 q 464 408 456 416 q 472 390 472 399 l 472 390 q 464 374 472 382 l 464 374 q 344 284 433 349 l 344 284 q 273 230 304 256 q 221 185 241 204 l 221 185 q 220 165 220 175 q 220 146 220 155 l 220 146 q 233 54 220 84 q 273 23 245 23 l 273 23 q 352 63 304 23 q 449 160 399 102 l 449 160 q 464 170 459 170 l 464 170 q 469 164 469 170 l 469 164 q 468 158 469 162 q 461 148 466 154 l 461 148 q 392 73 429 111 q 316 10 354 35 q 243 -16 278 -16 l 243 -16 q 198 7 213 -16 q 179 64 183 29 q 173 137 174 99 l 173 137 q -10 -98 51 7 l -10 -98 q -18 -102 -13 -102 z"},"y":{"ha":370,"x_min":-57,"x_max":404,"o":"m 23 -205 l 23 -205 q -33 -178 -9 -205 l -33 -178 q -56 -116 -57 -150 l -56 -116 q -24 -151 -44 -131 l -24 -151 q 27 -176 2 -176 l 27 -176 q 150 -85 84 -176 l 150 -85 q 198 -10 173 -53 q 244 84 222 32 l 244 84 l 282 176 l 135 61 q 26 8 67 8 l 26 8 q -9 24 4 8 q -22 57 -22 40 l -22 57 q 52 198 -22 100 l 52 198 q 163 297 126 297 l 163 297 q 194 274 194 297 l 194 274 q 105 170 194 265 l 105 170 q 17 43 17 76 l 17 43 q 34 30 17 30 l 34 30 q 173 113 66 30 l 173 113 q 251 177 217 148 q 308 229 285 206 l 308 229 q 324 249 316 239 q 339 268 332 258 l 339 268 q 377 290 358 290 l 377 290 q 404 268 404 290 l 404 268 q 362 202 404 264 l 362 202 q 327 150 340 168 q 312 126 314 131 l 312 126 q 217 -49 281 66 l 217 -49 q 23 -205 120 -205 z"},"z":{"ha":386,"x_min":-13,"x_max":382,"o":"m 231 -22 l 231 -22 q 174 -16 202 -22 q 122 3 145 -10 l 122 3 q 102 16 115 7 q 67 41 88 25 l 67 41 q 37 22 51 30 q 10 13 23 13 l 10 13 q -13 38 -13 13 l -13 38 q -7 60 -13 46 q 5 73 -2 73 l 5 73 q 10 66 10 73 l 10 66 q 9 58 10 61 l 9 58 q 9 56 9 57 q 8 53 8 54 l 8 53 q 18 43 8 43 l 18 43 q 47 55 31 43 l 47 55 l 9 84 q 7 89 7 86 l 7 89 q 17 106 7 96 q 35 115 27 115 l 35 115 q 81 81 38 115 l 81 81 q 164 170 121 126 l 164 170 q 221 228 196 204 q 263 265 245 252 l 263 265 q 146 289 184 289 l 146 289 q 107 279 122 289 q 92 252 92 268 l 92 252 q 106 228 92 239 l 106 228 q 114 218 114 222 l 114 218 q 109 212 114 212 l 109 212 q 82 232 99 212 l 82 232 q 66 273 66 252 l 66 273 q 82 305 66 294 q 120 320 97 316 q 165 324 143 324 l 165 324 q 235 312 197 324 q 310 288 273 300 l 310 288 q 340 296 324 296 l 340 296 q 382 271 382 296 l 382 271 q 370 253 382 261 q 339 244 357 244 l 339 244 q 305 251 320 244 l 305 251 q 101 65 211 193 l 101 65 l 137 37 q 188 15 160 20 q 242 9 215 9 l 242 9 q 317 25 286 9 q 348 73 348 41 l 348 73 q 344 95 348 86 l 344 95 q 342 102 342 101 l 342 102 q 352 109 342 109 l 352 109 q 359 104 357 109 l 359 104 q 367 70 367 86 l 367 70 q 330 4 367 30 q 231 -22 292 -22 z"}}}
